<?xml version="1.0" encoding="utf-8"?>
<!-- Generator: Adobe Illustrator 25.0.0, SVG Export Plug-In . SVG Version: 6.00 Build 0)  -->
<svg version="1.1" id="Layer_1" xmlns="http://www.w3.org/2000/svg" xmlns:xlink="http://www.w3.org/1999/xlink" x="0px" y="0px"
	 viewBox="0 0 48 48" style="enable-background:new 0 0 48 48;" xml:space="preserve">
<style type="text/css">
	.st0{fill:#B0BEC5;}
	.st1{fill:none;}
	.st2{fill:#FFFFFF;stroke:#B0BEC5;stroke-width:1.5;stroke-miterlimit:10;}
	.st3{fill:#FFFFFF;stroke:#B0BEC5;stroke-miterlimit:10;}
</style>
<g id="connectOff">
	<path class="st0" d="M20.3,17.7c0.4,0.4,1,0.4,1.3,0l0,0l0,0l2.4-2.4l2.4,2.4c0.4,0.4,1,0.4,1.3,0l0,0l0,0c0.3-0.4,0.3-1,0-1.4
		L25.4,14l2.4-2.4c0.3-0.5,0.1-1.1-0.4-1.4c-0.3-0.2-0.7-0.2-1,0L24,12.6l-2.4-2.4c-0.3-0.5-0.9-0.7-1.4-0.4s-0.7,0.9-0.4,1.4
		c0.1,0.2,0.2,0.3,0.4,0.4l2.4,2.4l-2.4,2.4C20,16.8,20,17.3,20.3,17.7z"/>
	<rect id="frame-42" class="st1" width="48" height="48"/>
	<g id="Bg_Th_Profile-3">
		<path class="st2" d="M14.4,24.3h19.3c2.8,0,5,1.7,5,3.8v0.7c0,2.1-2.2,3.8-5,3.8H14.4c-2.8,0-5-1.7-5-3.8v-0.7
			C9.4,26.1,11.6,24.3,14.4,24.3z"/>
		<g>
			<circle class="st3" cx="24" cy="28.7" r="0.8"/>
			<circle class="st3" cx="24" cy="26.2" r="0.8"/>
			<circle class="st3" cx="21.9" cy="28.7" r="0.8"/>
			<circle class="st3" cx="26.2" cy="28.7" r="0.8"/>
			<circle class="st3" cx="24" cy="30.8" r="0.8"/>
		</g>
	</g>
</g>
</svg>
