<?xml version="1.0" encoding="utf-8"?>
<!-- Generator: Adobe Illustrator 25.0.0, SVG Export Plug-In . SVG Version: 6.00 Build 0)  -->
<svg version="1.1" id="Layer_1" xmlns="http://www.w3.org/2000/svg" xmlns:xlink="http://www.w3.org/1999/xlink" x="0px" y="0px"
	 viewBox="0 0 48 48" style="enable-background:new 0 0 48 48;" xml:space="preserve">
<style type="text/css">
	.st0{fill:none;}
	.st1{fill:#6200EA;}
	.st2{fill:#FFFFFF;stroke:#455A64;stroke-width:1.5;stroke-miterlimit:10;}
	.st3{fill:#FFFFFF;stroke:#455A64;stroke-miterlimit:10;}
</style>
<g id="connectOn">
	<rect id="frame-41" class="st0" width="48" height="48"/>
	<path class="st1" d="M22,18L22,18c-0.3,0-0.5-0.1-0.7-0.3l-3-3c-0.4-0.4-0.4-1,0-1.4s1-0.4,1.4,0l0,0l0,0l2.3,2.3l5.3-5.3
		c0.4-0.4,1-0.5,1.4-0.1s0.5,1,0.1,1.4l-0.1,0.1l-6,6C22.5,17.9,22.3,18,22,18z"/>
	<g id="Bg_Th_Profile-3_4_">
		<path class="st2" d="M14.4,24.4h19.3c2.8,0,5,1.7,5,3.8V29c0,2.1-2.2,3.8-5,3.8H14.4c-2.8,0-5-1.7-5-3.8v-0.7
			C9.4,26.2,11.6,24.4,14.4,24.4z"/>
		<g>
			<circle class="st3" cx="24" cy="28.8" r="0.8"/>
			<circle class="st3" cx="24" cy="26.3" r="0.8"/>
			<circle class="st3" cx="21.9" cy="28.8" r="0.8"/>
			<circle class="st3" cx="26.2" cy="28.8" r="0.8"/>
			<circle class="st3" cx="24" cy="30.9" r="0.8"/>
		</g>
	</g>
</g>
</svg>
