<?xml version="1.0" encoding="utf-8"?>
<!-- Generator: Adobe Illustrator 25.0.0, SVG Export Plug-In . SVG Version: 6.00 Build 0)  -->
<svg version="1.1" id="Layer_1" xmlns="http://www.w3.org/2000/svg" xmlns:xlink="http://www.w3.org/1999/xlink" x="0px" y="0px"
	 viewBox="0 0 86.3 86.9" style="enable-background:new 0 0 86.3 86.9;" xml:space="preserve">
<style type="text/css">
	.st0{fill:none;stroke:#2985FF;stroke-width:3;stroke-linecap:round;stroke-linejoin:round;}
	.st1{fill:none;stroke:#FF4A41;stroke-width:3;stroke-linecap:round;stroke-miterlimit:10;}
	.st2{fill:#2985FF;}
	.st3{font-family:'ArialRoundedMTBold';}
	.st4{font-size:21.3798px;}
</style>
<g id="Layer_2_1_">
	<g id="About">
		<path class="st0" d="M12.1,1.5h64.6c4.5,0,8.1,3.6,8.1,8.1l0,0v64.6"/>
		<path class="st1" d="M74.1,85.4H9.6c-4.5,0-8.1-3.6-8.1-8.1c0,0,0,0,0,0V12.8"/>
		<g>
			<path class="st2" d="M25.6,66.3c-0.2-0.2-0.4-0.4-0.5-0.7l-6.8-17c0-0.1,0-0.2,0-0.3c0-0.2,0.1-0.4,0.2-0.6
				c0.1-0.1,0.3-0.2,0.5-0.2h3c0.5,0,0.9,0.3,1,0.7L27.8,61l4.8-12.8c0.1-0.2,0.2-0.3,0.3-0.5c0.2-0.2,0.4-0.2,0.6-0.2h3
				c0.2,0,0.4,0.1,0.5,0.2c0.1,0.2,0.2,0.4,0.2,0.6c0,0.1,0,0.2,0,0.3l-6.8,17c-0.2,0.6-0.7,0.9-1.3,0.9h-2.8
				C26.1,66.6,25.8,66.5,25.6,66.3z"/>
			<path class="st2" d="M41,73.3c-0.2-0.2-0.3-0.4-0.3-0.6V48.4c0-0.2,0.1-0.5,0.3-0.6c0.2-0.2,0.4-0.2,0.6-0.2h2.9
				c0.2,0,0.5,0.1,0.7,0.3c0.2,0.2,0.3,0.4,0.2,0.6v1.5c1.4-1.8,3.5-2.9,5.8-2.7c2.1-0.1,4.2,0.7,5.7,2.3c1.4,1.8,2.1,4,2.1,6.2
				c0,0.3,0,0.7,0,1.3s0,1,0,1.3c0,2.2-0.7,4.4-2.1,6.2c-1.4,1.6-3.5,2.5-5.7,2.4c-2.2,0.1-4.3-0.9-5.6-2.6v8.3
				c0,0.2-0.1,0.5-0.2,0.6c-0.2,0.2-0.4,0.2-0.6,0.2h-3.2C41.4,73.5,41.2,73.4,41,73.3z M54,58.1c0.1-0.7,0.1-1.5,0-2.2
				c-0.2-3.2-1.6-4.8-4.2-4.8c-1.2-0.1-2.4,0.4-3.1,1.3c-0.7,1-1.1,2.1-1.1,3.3c0,0.3,0,0.8,0,1.4s0,1.1,0,1.4
				c0,1.1,0.4,2.2,1.1,3.1c0.8,0.9,1.9,1.4,3.1,1.3C52.5,63,53.9,61.4,54,58.1L54,58.1z"/>
			<path class="st2" d="M63.4,66.3c-0.2-0.2-0.3-0.4-0.2-0.6V41.5c0-0.2,0.1-0.5,0.2-0.6c0.2-0.2,0.4-0.2,0.6-0.2h3.1
				c0.4,0,0.8,0.3,0.9,0.7c0,0,0,0.1,0,0.1v24.2c0,0.2-0.1,0.5-0.2,0.6c-0.2,0.2-0.4,0.3-0.6,0.3h-3.1
				C63.8,66.6,63.6,66.5,63.4,66.3z"/>
		</g>
	</g>
</g>
<text transform="matrix(1 0 0 1 18.2612 31.2817)" class="st2 st3 st4">NEW</text>
</svg>
