<?xml version="1.0" encoding="utf-8"?>
<!-- Generator: Adobe Illustrator 25.0.0, SVG Export Plug-In . SVG Version: 6.00 Build 0)  -->
<svg version="1.1" id="Layer_1" xmlns="http://www.w3.org/2000/svg" xmlns:xlink="http://www.w3.org/1999/xlink" x="0px" y="0px"
	 viewBox="0 0 96 96" style="enable-background:new 0 0 96 96;" xml:space="preserve">
<style type="text/css">
	.st0{display:none;}
	.st1{display:inline;fill:#FBEBE7;}
	.st2{display:none;fill:#FF6040;}
	.st3{display:inline;fill:#E5F0FF;}
	.st4{display:inline;fill:none;stroke:#FFAE9E;stroke-width:1.5;stroke-miterlimit:10;}
	.st5{display:inline;}
	.st6{fill:#B0BEC5;stroke:#78909C;stroke-width:2;stroke-linecap:round;stroke-linejoin:round;}
	.st7{fill:#B0BEC5;}
	.st8{fill:none;stroke:#78909C;stroke-width:2;stroke-linecap:round;stroke-linejoin:round;}
	.st9{fill:#FF6040;}
	.st10{fill:none;stroke:#80C0FF;stroke-width:1.5;stroke-miterlimit:10;}
	.st11{fill:#99CCFF;}
	.st12{fill:none;stroke:#FFAE9E;stroke-width:1.5;stroke-miterlimit:10;}
	.st13{fill:#FFBFB2;}
	.st14{fill:#546E7A;stroke:#263238;stroke-width:2;stroke-linecap:round;stroke-linejoin:round;}
	.st15{fill:#FFFFFF;stroke:#455A64;stroke-width:1.5;stroke-miterlimit:10;}
	.st16{fill:#FF6738;}
	.st17{fill:#FFBFB2;stroke:#37474F;stroke-width:1.5;stroke-linejoin:round;}
	.st18{fill:#FFD0C7;stroke:#37474F;stroke-width:1.5;stroke-linejoin:round;}
	.st19{fill:#ECEFF1;stroke:#455A64;stroke-width:1.5;stroke-linecap:round;stroke-linejoin:round;}
	.st20{fill:#455A64;}
	.st21{display:inline;fill:#FFBFB2;}
	.st22{display:inline;fill:none;stroke:#37474F;stroke-width:2;stroke-linecap:round;stroke-miterlimit:10;}
	.st23{fill:#FFD0C7;}
	.st24{fill:#37474F;}
	.st25{fill:none;stroke:#37474F;stroke-width:1.5;stroke-linecap:round;stroke-linejoin:round;}
	.st26{fill:none;stroke:#455A64;stroke-width:1.5;stroke-linecap:round;stroke-miterlimit:10;}
	.st27{fill:#D1D1D1;}
	.st28{fill:#ECEFF1;}
	.st29{fill:none;stroke:#FF6040;stroke-width:2;stroke-linecap:round;stroke-linejoin:round;}
	.st30{fill:none;stroke:#FF6040;stroke-width:2;stroke-linecap:round;stroke-miterlimit:10;}
	.st31{fill:none;stroke:#607D8B;stroke-width:2;stroke-linecap:round;stroke-miterlimit:10;}
	.st32{fill:none;}
	.st33{fill:#BEFAEA;stroke:#263238;stroke-width:2;stroke-linejoin:round;}
	.st34{fill:none;stroke:#D1D1D1;stroke-linecap:round;stroke-linejoin:bevel;}
	.st35{fill:none;stroke:#D1D1D1;stroke-linecap:round;stroke-miterlimit:10;}
	.st36{fill:#FFFFFF;}
	.st37{fill:none;stroke:#455A64;stroke-width:1.5;stroke-miterlimit:10;}
	.st38{display:none;fill:#FFFFFF;stroke:#455A64;stroke-width:1.5;stroke-miterlimit:10;}
	.st39{fill:#90A4AE;stroke:#607D8B;stroke-width:2;stroke-linecap:round;stroke-linejoin:round;}
	.st40{fill:#90A4AE;stroke:#607D8B;stroke-width:2;stroke-linecap:round;stroke-linejoin:round;stroke-miterlimit:4;}
	.st41{fill:none;stroke:#6215E6;stroke-width:2;stroke-linecap:round;stroke-miterlimit:10;}
	.st42{fill:#B0BEC5;stroke:#78909C;stroke-width:1.9999;stroke-linecap:round;stroke-linejoin:round;stroke-miterlimit:3.9998;}
	.st43{fill:#B0BEC5;stroke:#78909C;stroke-width:2;stroke-linecap:round;stroke-linejoin:round;stroke-miterlimit:4.0001;}
	.st44{fill:#B0BEC5;stroke:#78909C;stroke-width:2;stroke-linecap:round;stroke-linejoin:round;stroke-miterlimit:4;}
	.st45{fill:none;stroke:#90A4AE;stroke-width:2;stroke-linecap:round;stroke-linejoin:round;}
	.st46{fill:none;stroke:#263238;stroke-width:2;stroke-linecap:round;stroke-linejoin:round;}
	.st47{fill:none;stroke:#607D8B;stroke-width:2;stroke-linecap:round;stroke-linejoin:round;}
	.st48{fill:#BEFAEA;stroke:#263238;stroke-width:2;stroke-linecap:round;stroke-linejoin:round;}
	.st49{display:inline;fill:#90A4AE;stroke:#607D8B;stroke-width:2;stroke-linecap:round;stroke-linejoin:round;}
	.st50{fill:#90A4AE;}
	.st51{display:inline;fill:#FFFFFF;stroke:#FF3D00;stroke-width:2;stroke-linecap:round;stroke-linejoin:round;}
	.st52{fill:#90A4AE;stroke:#607D8B;stroke-width:2;stroke-linejoin:round;}
	.st53{display:inline;fill:#FFAE9E;}
	.st54{fill:url(#Gradient_proxGd_0_1_);}
	.st55{fill:url(#Gradient_proxGd_1_1_);}
	.st56{fill:none;stroke:#90A4AE;stroke-width:1.5;stroke-linecap:round;stroke-miterlimit:10;stroke-dasharray:2.08,3.12;}
	.st57{fill:#BEFAEA;}
	.st58{fill:#263238;}
	.st59{display:inline;fill:#90A4AE;stroke:#607D8B;stroke-width:2;stroke-linejoin:round;stroke-miterlimit:3.9999;}
	.st60{display:inline;fill:none;stroke:#FF6040;stroke-linecap:round;stroke-linejoin:round;}
	.st61{fill:#6215E6;}
	.st62{display:inline;fill:none;}
	.st63{fill:none;stroke:#B0BEC5;stroke-width:2;stroke-linecap:round;stroke-linejoin:round;}
	.st64{fill:#FFFFFF;stroke:#B0BEC5;stroke-width:2;stroke-linecap:round;stroke-linejoin:round;}
	.st65{display:inline;fill:#FFFFFF;stroke:#37474F;stroke-width:1.5;stroke-linejoin:round;}
	.st66{display:inline;fill:#37474F;}
	.st67{fill:#00FF50;stroke:#546E7A;stroke-width:2;stroke-linecap:round;stroke-linejoin:round;}
	.st68{fill:#1919FF;stroke:#546E7A;stroke-width:2;stroke-linecap:round;stroke-linejoin:round;}
	.st69{fill:#FF0000;stroke:#546E7A;stroke-width:2;stroke-linecap:round;stroke-linejoin:round;}
	.st70{fill:#00E5FF;stroke:#546E7A;stroke-width:2;stroke-linecap:round;stroke-linejoin:round;}
	.st71{fill:#FFEA00;stroke:#546E7A;stroke-width:2;stroke-linecap:round;stroke-linejoin:round;}
	.st72{fill:#FF00FB;stroke:#546E7A;stroke-width:2;stroke-linecap:round;stroke-linejoin:round;}
	.st73{fill:#FFFFFF;stroke:#546E7A;stroke-width:2;stroke-linecap:round;stroke-linejoin:round;}
	.st74{fill:#90A4AE;stroke:#546E7A;stroke-width:2;stroke-linecap:round;stroke-linejoin:round;}
	.st75{fill:#FF3D00;}
	.st76{fill:#E7EBED;stroke:#455A64;stroke-width:1.5;stroke-miterlimit:10;}
	.st77{fill:#00EAFF;stroke:#546E7A;stroke-width:2;stroke-linecap:round;stroke-linejoin:round;}
	.st78{fill:none;stroke:#90A4AE;stroke-width:1.5;stroke-linecap:round;stroke-miterlimit:10;}
	.st79{display:inline;fill:url(#Gradient_top_1_);}
	.st80{fill:none;stroke:#FFFFFF;stroke-width:2;stroke-linecap:round;stroke-miterlimit:10;}
	.st81{fill:none;stroke:#2543F2;stroke-width:2;stroke-linecap:round;stroke-linejoin:round;}
	.st82{fill:#2543F2;stroke:#263238;stroke-width:2;stroke-linejoin:round;}
	.st83{fill:none;stroke:#00E676;stroke-width:2;stroke-linecap:round;stroke-linejoin:round;}
	.st84{fill:#00E676;stroke:#263238;stroke-width:2;stroke-linejoin:round;}
	.st85{fill:none;stroke:#FF3D00;stroke-width:2;stroke-linecap:round;stroke-linejoin:round;}
	.st86{fill:#FF3D00;stroke:#263238;stroke-width:2;stroke-linejoin:round;}
	.st87{display:inline;fill:url(#Gradient_bottom_1_);}
	.st88{fill:none;stroke:#263238;stroke-width:2;stroke-linejoin:round;}
	.st89{fill:#338BFF;}
	.st90{display:inline;fill:#338BFF;}
	.st91{stroke:#263238;stroke-width:2;stroke-linejoin:round;}
	.st92{fill:#FFFFFF;stroke:#263238;stroke-width:2;stroke-linejoin:round;}
	.st93{display:inline;fill:#99CCFF;}
	.st94{display:inline;fill:#263238;}
	.st95{display:inline;fill:none;stroke:#263238;stroke-width:2;stroke-linecap:round;stroke-miterlimit:10;}
	.st96{display:inline;fill:none;stroke:#338BFF;stroke-width:2;stroke-miterlimit:10;}
	.st97{fill:none;stroke:#338BFF;stroke-miterlimit:10;}
	.st98{fill:#FFFFFF;stroke:#263238;stroke-width:2;stroke-linecap:round;stroke-linejoin:round;}
	.st99{fill-rule:evenodd;clip-rule:evenodd;}
	.st100{fill:none;stroke:#FF6040;stroke-linecap:round;stroke-linejoin:round;}
</style>
<g id="Layer_2_1_">
	<g id="Layer_2-2">
		<g id="Event_bg" class="st0">
			<path id="Events_bg" class="st1" d="M4,0h88c2.2,0,4,1.8,4,4v88c0,2.2-1.8,4-4,4H4c-2.2,0-4-1.8-4-4V4C0,1.8,1.8,0,4,0z"/>
		</g>
		<polygon id="Corner" class="st2" points="96,12 96,0 84,0 		"/>
		<g id="Act_bg" class="st0">
			<path id="Actions_bg" class="st3" d="M4,0h88c2.2,0,4,1.8,4,4v88c0,2.2-1.8,4-4,4H4c-2.2,0-4-1.8-4-4V4C0,1.8,1.8,0,4,0z"/>
		</g>
		<g id="Ev_Buttons" class="st0">
			<path id="Bg_Thymio" class="st4" d="M48,6.6c-15,0-29.5,6-40.2,16.6C7,24,6.6,25,6.6,26v61.4c0,1.1,0.9,2,2,2l78.8,0.1
				c1.1,0,2-0.9,2-2l0.1-61.4c0-1-0.4-2.1-1.1-2.8C77.6,12.6,63.1,6.6,48,6.6z"/>
			<g id="ButtonsOff" class="st5">
				<circle id="Btn2_Center" class="st6" cx="48" cy="48" r="8.8"/>
				<g id="Btn2_Forward">
					<path class="st7" d="M40.2,31.2c-0.5,0-0.8-0.4-0.5-0.9L47.5,17c0.1-0.3,0.4-0.4,0.7-0.3l0,0c0.2,0.1,0.3,0.2,0.3,0.3l7.8,13.4
						c0.2,0.2,0.1,0.6-0.1,0.8c-0.1,0.1-0.3,0.1-0.4,0.1L40.2,31.2z"/>
					<path class="st8" d="M40.2,31.2c-0.5,0-0.8-0.4-0.5-0.9L47.5,17c0.1-0.3,0.4-0.4,0.7-0.3l0,0c0.2,0.1,0.3,0.2,0.3,0.3l7.8,13.4
						c0.2,0.2,0.1,0.6-0.1,0.8c-0.1,0.1-0.3,0.1-0.4,0.1L40.2,31.2z"/>
				</g>
				<g id="Btn2_Backward">
					<path class="st7" d="M40.2,64.8c-0.5,0-0.8,0.4-0.5,0.9l7.7,13.4c0.1,0.3,0.4,0.4,0.7,0.3l0,0c0.2-0.1,0.3-0.2,0.3-0.3
						l7.8-13.4c0.2-0.2,0.1-0.6-0.1-0.8c-0.1-0.1-0.3-0.1-0.4-0.1H40.2z"/>
					<path class="st8" d="M40.2,64.8c-0.5,0-0.8,0.4-0.5,0.9l7.7,13.4c0.1,0.3,0.4,0.4,0.7,0.3l0,0c0.2-0.1,0.3-0.2,0.3-0.3
						l7.8-13.4c0.2-0.2,0.1-0.6-0.1-0.8c-0.1-0.1-0.3-0.1-0.4-0.1H40.2z"/>
				</g>
				<g id="Btn2_Right">
					<path class="st7" d="M64.9,40.4c0-0.5,0.4-0.8,0.9-0.5L79,47.5c0.3,0.1,0.4,0.4,0.3,0.6l0,0c-0.1,0.2-0.2,0.3-0.3,0.3L65.8,56
						c-0.2,0.2-0.6,0.1-0.8-0.1c-0.1-0.1-0.1-0.3-0.1-0.4V40.4z"/>
					<path class="st8" d="M64.9,40.4c0-0.5,0.4-0.8,0.9-0.5L79,47.5c0.3,0.1,0.4,0.4,0.3,0.6l0,0c-0.1,0.2-0.2,0.3-0.3,0.3L65.8,56
						c-0.2,0.2-0.6,0.1-0.8-0.1c-0.1-0.1-0.1-0.3-0.1-0.4V40.4z"/>
				</g>
				<g id="Btn2_Left">
					<path class="st7" d="M31.1,40.4c0-0.5-0.4-0.8-0.9-0.5L17,47.5c-0.3,0.1-0.4,0.4-0.3,0.6l0,0c0.1,0.2,0.2,0.3,0.3,0.3L30.1,56
						c0.2,0.2,0.6,0.1,0.8-0.1c0.1-0.1,0.1-0.3,0.1-0.4L31.1,40.4z"/>
					<path class="st8" d="M31.1,40.4c0-0.5-0.4-0.8-0.9-0.5L17,47.5c-0.3,0.1-0.4,0.4-0.3,0.6l0,0c0.1,0.2,0.2,0.3,0.3,0.3L30.1,56
						c0.2,0.2,0.6,0.1,0.8-0.1c0.1-0.1,0.1-0.3,0.1-0.4L31.1,40.4z"/>
				</g>
			</g>
		</g>
		<g id="Ev_Remote1" class="st0">
			<g id="RemoteSignal" class="st5">
				<path class="st9" d="M51.7,12.1c-0.3,0-0.5-0.1-0.7-0.3c-1.6-1.6-4.2-1.6-5.9,0l0,0l0,0c-0.4,0.4-1,0.4-1.4,0s-0.4-1,0-1.4l0,0
					c2.4-2.4,6.3-2.4,8.7,0l0,0c0.4,0.4,0.4,1,0,1.4l0,0C52.2,12,51.9,12.1,51.7,12.1z"/>
				<path class="st9" d="M54,9.8c-0.3,0-0.5-0.1-0.7-0.3c-2.9-2.9-7.7-2.9-10.6,0l0,0l0,0c-0.4,0.4-1,0.4-1.4,0s-0.4-1,0-1.4l0,0
					C45,4.3,51,4.3,54.7,8c0.4,0.4,0.4,1,0,1.4l0,0C54.5,9.6,54.3,9.7,54,9.8z"/>
			</g>
			<g id="Remote1_buttons" class="st5">
				<path id="Btn2_Remote1_85" class="st6" d="M30,51.8c0-3.5,1-7,3-9.9c0.5-0.8,0.4-1.8-0.2-2.5l-7.2-7.2c-0.8-0.8-2-0.8-2.8,0l0,0
					c-0.1,0.1-0.1,0.1-0.2,0.2c-8.8,11.5-8.8,27.4,0,38.8c0.7,0.9,1.9,1,2.8,0.4l0,0l0.2-0.2l7.2-7.2c0.7-0.7,0.8-1.7,0.3-2.6
					C31,58.7,30,55.3,30,51.8z"/>
				<path id="Btn2_Remote1_81" class="st6" d="M48,69.8c-3.5,0-7-1.1-9.9-3c-0.8-0.5-1.9-0.4-2.5,0.2l-7.2,7.2c-0.8,0.8-0.8,2,0,2.8
					l0.2,0.2c11.5,8.7,27.4,8.7,38.8,0c0.9-0.7,1-1.9,0.4-2.8l0,0c-0.1-0.1-0.1-0.1-0.2-0.2L60.4,67c-0.7-0.7-1.7-0.8-2.5-0.2
					C55,68.7,51.5,69.8,48,69.8z"/>
				<path id="Btn2_Remote1_86" class="st6" d="M66,51.8c0,3.5-1,7-3,9.9c-0.5,0.8-0.4,1.9,0.2,2.5l7.2,7.2c0.8,0.8,2,0.8,2.8,0l0,0
					c0.1-0.1,0.1-0.1,0.2-0.2c8.8-11.5,8.8-27.4,0-38.8c-0.7-0.9-1.9-1-2.8-0.3l-0.2,0.2l-7.2,7.2c-0.7,0.7-0.8,1.7-0.2,2.5
					C65,44.8,66,48.2,66,51.8z"/>
				<path id="Btn2_Remote1_80" class="st6" d="M48,33.8c3.5,0,7,1,9.9,3c0.8,0.5,1.9,0.4,2.5-0.2l7.2-7.2c0.8-0.8,0.8-2,0-2.8
					l-0.2-0.2c-11.5-8.7-27.4-8.7-38.8,0c-0.9,0.7-1,1.9-0.4,2.8l0,0c0.1,0.1,0.1,0.1,0.2,0.2l7.2,7.2c0.7,0.7,1.7,0.8,2.5,0.2
					C41,34.8,44.5,33.8,48,33.8z"/>
				<circle id="Btn2_Remote1_87" class="st6" cx="48" cy="51.8" r="12"/>
			</g>
		</g>
		<g id="Ev_Remote2" class="st0">
			<g id="Remote2_Buttons" class="st5">
				<rect id="Btn2_Remote2_0" x="40" y="72" class="st6" width="16" height="12"/>
				<path id="Btn2_Remote2_17" class="st6" d="M22,72h10v12H22c-3.3,0-6-2.7-6-6l0,0C16,74.7,18.7,72,22,72z"/>
				<path id="Btn2_Remote2_16" class="st6" d="M64,72h10c3.3,0,6,2.7,6,6l0,0c0,3.3-2.7,6-6,6H64V72z"/>
				<path id="Btn2_Remote2_9" class="st6" d="M64,54h10c3.3,0,6,2.7,6,6l0,0c0,3.3-2.7,6-6,6H64V54z"/>
				<rect id="Btn2_Remote2_8" x="40" y="54" class="st6" width="16" height="12"/>
				<path id="Btn2_Remote2_7" class="st6" d="M22,54h10v12H22c-3.3,0-6-2.7-6-6l0,0C16,56.7,18.7,54,22,54z"/>
				<path id="Btn2_Remote2_6" class="st6" d="M64,36h10c3.3,0,6,2.7,6,6l0,0c0,3.3-2.7,6-6,6H64V36z"/>
				<rect id="Btn2_Remote2_5" x="40" y="36" class="st6" width="16" height="12"/>
				<path id="Btn2_Remote2_4" class="st6" d="M22,36h10v12H22c-3.3,0-6-2.7-6-6l0,0C16,38.7,18.7,36,22,36z"/>
				<path id="Btn2_Remote2_3" class="st6" d="M64,18h10c3.3,0,6,2.7,6,6l0,0c0,3.3-2.7,6-6,6H64V18z"/>
				<rect id="Btn2_Remote2_2" x="40" y="18" class="st6" width="16" height="12"/>
				<path id="Btn2_Remote2_1" class="st6" d="M22,18h10v12H22c-3.3,0-6-2.7-6-6l0,0C16,20.7,18.7,18,22,18z"/>
			</g>
			<g id="RemoteSignal-2" class="st5">
				<path class="st9" d="M51.7,12.1c-0.3,0-0.5-0.1-0.7-0.3c-1.6-1.6-4.3-1.6-5.9,0l0,0c-0.4,0.4-1,0.4-1.4,0s-0.4-1,0-1.4l0,0
					c2.4-2.4,6.3-2.4,8.7,0l0,0c0.4,0.4,0.4,1,0,1.4l0,0C52.2,12,51.9,12.1,51.7,12.1z"/>
				<path class="st9" d="M54,9.8c-0.3,0-0.5-0.1-0.7-0.3c-2.9-2.9-7.7-2.9-10.6,0l0,0l0,0c-0.4,0.4-1,0.4-1.4,0s-0.4-1,0-1.4l0,0
					C45,4.3,51,4.3,54.7,8c0.4,0.4,0.4,1,0,1.4l0,0C54.5,9.6,54.3,9.7,54,9.8z"/>
			</g>
		</g>
		<g id="CircleLeds_bas" class="st0">
			<g id="statesAct_Bg" class="st5">
				<path id="Ev_Bg_Thymio" class="st10" d="M48,6.1C32.8,6,18.1,12,7.3,22.8c-0.8,0.8-1.2,1.9-1.2,3L6,86.5C6,88.4,7.6,90,9.5,90
					l0,0l77,0.1c1.9,0,3.5-1.6,3.5-3.5V25.9c0-1.1-0.4-2.2-1.2-3C78,12.1,63.3,6,48,6.1z"/>
				<g>
					<circle id="center" class="st11" cx="48" cy="48" r="7.5"/>
					<g id="up">
						<path class="st11" d="M41.5,34.1c-0.6,0-0.8-0.4-0.5-0.9L47.4,22c0.3-0.5,0.7-0.5,1,0L55,33.1c0.3,0.5,0.1,0.9-0.5,0.9
							L41.5,34.1z"/>
					</g>
					<g id="down">
						<path class="st11" d="M41.5,62c-0.6,0-0.8,0.4-0.5,0.9l6.4,11.3c0.1,0.3,0.4,0.4,0.7,0.3l0,0c0.2-0.1,0.3-0.2,0.3-0.3L55,63
							c0.3-0.5,0.1-0.9-0.5-0.9L41.5,62z"/>
					</g>
					<g id="right">
						<path class="st11" d="M62,41.5c0-0.5,0.4-0.8,0.9-0.5l11.3,6.4c0.5,0.3,0.5,0.7,0,1L62.9,55c-0.5,0.3-0.9,0.1-0.9-0.5V41.5z"
							/>
					</g>
					<g id="left">
						<path class="st11" d="M34,41.5c0-0.5-0.4-0.8-0.9-0.5l-11.3,6.4c-0.5,0.3-0.5,0.7,0,1L33.1,55c0.5,0.3,0.9,0.1,0.9-0.5V41.5z"
							/>
					</g>
				</g>
			</g>
			<g id="statesEv_Bg" class="st5">
				<path id="Ev_Bg_Thymio-2" class="st12" d="M48,6.1C32.8,6,18.1,12,7.3,22.8c-0.8,0.8-1.2,1.9-1.2,3L6,86.5C6,88.4,7.6,90,9.5,90
					l0,0l77,0.1c1.9,0,3.5-1.6,3.5-3.5V25.9c0-1.1-0.4-2.2-1.2-3C78,12.1,63.3,6,48,6.1z"/>
				<g>
					<circle id="center-2" class="st13" cx="48" cy="48" r="7.5"/>
					<g id="up-2">
						<path class="st13" d="M41.5,34.1c-0.6,0-0.8-0.4-0.5-0.9L47.4,22c0.1-0.3,0.4-0.4,0.7-0.3l0,0c0.2,0.1,0.3,0.2,0.3,0.3
							L55,33.1c0.3,0.5,0.1,0.9-0.5,0.9L41.5,34.1z"/>
					</g>
					<g id="down-2">
						<path class="st13" d="M41.5,62c-0.6,0-0.8,0.4-0.5,0.9l6.4,11.3c0.3,0.5,0.7,0.5,1,0L55,63c0.3-0.5,0.1-0.9-0.5-0.9L41.5,62z"
							/>
					</g>
					<g id="right-2">
						<path class="st13" d="M62,41.5c0-0.6,0.4-0.8,0.9-0.5l11.3,6.4c0.3,0.1,0.4,0.4,0.3,0.6l0,0c-0.1,0.2-0.2,0.3-0.3,0.3L62.9,55
							c-0.2,0.2-0.6,0.2-0.8-0.1c-0.1,0-0.1-0.2-0.1-0.4V41.5z"/>
					</g>
					<g id="left-2">
						<path class="st13" d="M34,41.5c0-0.6-0.4-0.8-0.9-0.5l-11.3,6.4c-0.3,0.1-0.4,0.4-0.3,0.6l0,0c0.1,0.2,0.2,0.3,0.3,0.3
							L33.1,55c0.2,0.2,0.6,0.2,0.8-0.1c0.1-0.1,0.1-0.3,0.1-0.4L34,41.5z"/>
					</g>
				</g>
			</g>
			<g id="StatesOff_bas" class="st5">
				<path id="Btn2_State7" class="st14" d="M33.1,18.1L33.1,18.1c-0.8-2-3.2-3-5.2-2.2l0,0c-0.2,0.1-0.4,0.2-0.6,0.3
					c-4.6,3-8.5,6.9-11.4,11.5c-1.1,1.9-0.6,4.3,1.3,5.5c0.2,0.1,0.4,0.2,0.5,0.3l0,0c1.8,0.7,3.8,0.1,4.9-1.5
					c2.3-3.6,5.4-6.7,8.9-9C33.2,21.9,33.9,19.9,33.1,18.1z"/>
				<path id="Btn2_State6" class="st14" d="M18,48c0-2.1,0.2-4.2,0.7-6.3c0.4-1.9-0.6-3.8-2.4-4.5l0,0c-2-0.9-4.4,0.1-5.2,2.1l0,0
					c-0.1,0.2-0.1,0.4-0.2,0.6c-1.2,5.3-1.2,10.8,0,16.1c0.5,2.2,2.6,3.5,4.8,3l0,0c0.2,0,0.4-0.1,0.6-0.2l0,0
					c1.8-0.7,2.8-2.6,2.4-4.5C18.2,52.3,18,50.1,18,48z"/>
				<path id="Btn2_State5" class="st14" d="M17.8,62.6L17.8,62.6c-2,0.8-3,3.2-2.2,5.2c0.1,0.2,0.2,0.4,0.3,0.6
					c2.9,4.6,6.8,8.5,11.4,11.5c1.9,1.2,4.3,0.6,5.5-1.3c0.1-0.2,0.2-0.4,0.3-0.6l0,0c0.7-1.8,0.1-3.8-1.5-4.8
					c-3.6-2.3-6.6-5.4-8.9-9C21.7,62.5,19.6,61.9,17.8,62.6z"/>
				<path id="Btn2_State4" class="st14" d="M48,78c-2.3,0-4.5-0.3-6.7-0.8c-1.9-0.4-3.8,0.6-4.6,2.4l0,0c-0.8,2,0.1,4.4,2.2,5.2
					c0.2,0.1,0.5,0.2,0.7,0.2c5.3,1.2,10.8,1.2,16.1,0.1c2.2-0.4,3.6-2.5,3.2-4.7l0,0c-0.1-0.3-0.1-0.5-0.2-0.8l0,0
					C57.9,78,56,77,54.1,77.4C52.1,77.8,50.1,78,48,78z"/>
				<path id="Btn2_State3" class="st14" d="M62.4,78.4L62.4,78.4c0.8,2,3.2,3,5.2,2.2l0,0c0.2-0.1,0.4-0.2,0.5-0.3
					c4.7-3,8.8-6.9,11.8-11.6c1.2-1.9,0.6-4.3-1.3-5.5c-0.2-0.1-0.4-0.2-0.6-0.3l0,0c-1.8-0.7-3.8-0.1-4.9,1.5
					c-2.4,3.7-5.5,6.8-9.2,9.2C62.3,74.5,61.7,76.6,62.4,78.4z"/>
				<path id="Btn2_State2" class="st14" d="M78,48c0,2.2-0.2,4.4-0.7,6.6c-0.4,1.9,0.6,3.8,2.4,4.5l0,0c2,0.9,4.4-0.1,5.2-2.1
					c0.1-0.2,0.1-0.4,0.2-0.6c1.2-5.5,1.2-11.2,0-16.7c-0.5-2.2-2.6-3.5-4.8-3l0,0c-0.2,0.1-0.4,0.1-0.6,0.2l0,0
					c-1.8,0.7-2.8,2.7-2.4,4.5C77.8,43.6,78,45.8,78,48z"/>
				<path id="Btn2_State1" class="st14" d="M78.1,33.3L78.1,33.3c2.1-0.8,3.1-3.1,2.2-5.2l0,0c-0.1-0.2-0.2-0.4-0.3-0.6
					c-3-4.7-7.1-8.7-11.8-11.6c-1.9-1.2-4.3-0.6-5.5,1.3l0,0c-0.1,0.2-0.2,0.4-0.3,0.6l0,0c-0.7,1.8,0,3.9,1.6,4.9
					c3.7,2.3,6.9,5.5,9.3,9.2C74.3,33.4,76.3,34,78.1,33.3z"/>
				<path id="Btn2_State0" class="st14" d="M48,18c2.1,0,4.1,0.2,6.2,0.6c1.9,0.4,3.8-0.6,4.5-2.4l0,0c0.8-2-0.1-4.4-2.2-5.2l0,0
					c-0.3-0.1-0.5-0.2-0.8-0.2C53.2,10.3,50.6,10,48,10c-2.8,0-5.7,0.3-8.4,0.9c-2.2,0.5-3.5,2.6-3.1,4.8c0.1,0.2,0.1,0.5,0.2,0.7
					l0,0c0.7,1.8,2.7,2.8,4.6,2.4C43.5,18.2,45.7,18,48,18z"/>
			</g>
		</g>
		<g id="CircleLeds_adv" class="st0">
			<g id="statesAct_Bg_adv" class="st5">
				<path id="Ev_Bg_Thymio-3" class="st10" d="M48,6.1C32.8,6,18.1,12,7.3,22.8c-0.8,0.8-1.2,1.9-1.2,3L6,86.5C6,88.4,7.6,90,9.5,90
					l0,0l77,0.1c1.9,0,3.5-1.6,3.5-3.5V25.9c0-1.1-0.4-2.2-1.2-3C78,12.1,63.3,6,48,6.1z"/>
				<g>
					<circle id="center-3" class="st11" cx="48" cy="48" r="7.5"/>
					<g id="up-3">
						<path class="st11" d="M41.5,34.1c-0.6,0-0.8-0.4-0.5-0.9L47.4,22c0.3-0.5,0.7-0.5,1,0L55,33.1c0.3,0.5,0.1,0.9-0.5,0.9
							L41.5,34.1z"/>
					</g>
					<g id="down-3">
						<path class="st11" d="M41.5,62c-0.6,0-0.8,0.4-0.5,0.9l6.4,11.3c0.1,0.3,0.4,0.4,0.7,0.3l0,0c0.2-0.1,0.3-0.2,0.3-0.3L55,63
							c0.3-0.5,0.1-0.9-0.5-0.9L41.5,62z"/>
					</g>
					<g id="right-3">
						<path class="st11" d="M62,41.5c0-0.5,0.4-0.8,0.9-0.5l11.3,6.4c0.5,0.3,0.5,0.7,0,1L62.9,55c-0.5,0.3-0.9,0.1-0.9-0.5V41.5z"
							/>
					</g>
					<g id="left-3">
						<path class="st11" d="M34,41.5c0-0.5-0.4-0.8-0.9-0.5l-11.3,6.4c-0.5,0.3-0.5,0.7,0,1L33.1,55c0.5,0.3,0.9,0.1,0.9-0.5V41.5z"
							/>
					</g>
				</g>
			</g>
			<g id="statesEv_Bg_adv" class="st5">
				<path id="Ev_Bg_Thymio-4" class="st12" d="M48,6.1C32.8,6,18.1,12,7.3,22.8c-0.8,0.8-1.2,1.9-1.2,3L6,86.5C6,88.4,7.6,90,9.5,90
					l0,0l77,0.1c1.9,0,3.5-1.6,3.5-3.5V25.9c0-1.1-0.4-2.2-1.2-3C78,12.1,63.3,6,48,6.1z"/>
				<g>
					<circle id="center-4" class="st13" cx="48" cy="48" r="7.5"/>
					<g id="up-4">
						<path class="st13" d="M41.5,34.1c-0.6,0-0.8-0.4-0.5-0.9L47.4,22c0.1-0.3,0.4-0.4,0.7-0.3l0,0c0.2,0.1,0.3,0.2,0.3,0.3
							L55,33.1c0.3,0.5,0.1,0.9-0.5,0.9L41.5,34.1z"/>
					</g>
					<g id="down-4">
						<path class="st13" d="M41.5,62c-0.6,0-0.8,0.4-0.5,0.9l6.4,11.3c0.3,0.5,0.7,0.5,1,0L55,63c0.3-0.5,0.1-0.9-0.5-0.9L41.5,62z"
							/>
					</g>
					<g id="right-4">
						<path class="st13" d="M62,41.5c0-0.6,0.4-0.8,0.9-0.5l11.3,6.4c0.3,0.1,0.4,0.4,0.3,0.6l0,0c-0.1,0.2-0.2,0.3-0.3,0.3L62.9,55
							c-0.2,0.2-0.6,0.2-0.8-0.1c-0.1,0-0.1-0.2-0.1-0.4V41.5z"/>
					</g>
					<g id="left-4">
						<path class="st13" d="M34,41.5c0-0.6-0.4-0.8-0.9-0.5l-11.3,6.4c-0.3,0.1-0.4,0.4-0.3,0.6l0,0c0.1,0.2,0.2,0.3,0.3,0.3
							L33.1,55c0.2,0.2,0.6,0.2,0.8-0.1c0.1-0.1,0.1-0.3,0.1-0.4L34,41.5z"/>
					</g>
				</g>
			</g>
			<g id="StatesOff_adv" class="st5">
				<path id="Btn3_State7_adv" class="st6" d="M33.1,18.1L33.1,18.1c-0.8-2-3.2-3-5.2-2.2l0,0c-0.2,0.1-0.4,0.2-0.6,0.3
					c-4.6,3-8.5,6.9-11.4,11.5c-1.1,1.9-0.6,4.3,1.3,5.5c0.2,0.1,0.4,0.2,0.5,0.3l0,0c1.8,0.7,3.8,0.1,4.9-1.5
					c2.3-3.6,5.4-6.7,8.9-9C33.2,21.9,33.9,19.9,33.1,18.1z"/>
				<path id="Btn3_State6_adv" class="st6" d="M18,48c0-2.1,0.2-4.2,0.7-6.3c0.4-1.9-0.6-3.8-2.4-4.5l0,0c-2-0.9-4.4,0.1-5.2,2.1
					l0,0c-0.1,0.2-0.1,0.4-0.2,0.6c-1.2,5.3-1.2,10.8,0,16.1c0.5,2.2,2.6,3.5,4.8,3l0,0c0.2,0,0.4-0.1,0.6-0.2l0,0
					c1.8-0.7,2.8-2.6,2.4-4.5C18.2,52.3,18,50.1,18,48z"/>
				<path id="Btn3_State5_adv" class="st6" d="M17.8,62.6L17.8,62.6c-2,0.8-3,3.2-2.2,5.2c0.1,0.2,0.2,0.4,0.3,0.6
					c2.9,4.6,6.8,8.5,11.4,11.5c1.9,1.2,4.3,0.6,5.5-1.3c0.1-0.2,0.2-0.4,0.3-0.6l0,0c0.7-1.8,0.1-3.8-1.5-4.8
					c-3.6-2.3-6.6-5.4-8.9-9C21.7,62.5,19.6,61.9,17.8,62.6z"/>
				<path id="Btn3_State4_adv" class="st6" d="M48,78c-2.3,0-4.5-0.3-6.7-0.8c-1.9-0.4-3.8,0.6-4.6,2.4l0,0c-0.8,2,0.1,4.4,2.2,5.2
					c0.2,0.1,0.5,0.2,0.7,0.2c5.3,1.2,10.8,1.2,16.1,0.1c2.2-0.4,3.6-2.5,3.2-4.7l0,0c-0.1-0.3-0.1-0.5-0.2-0.8l0,0
					C57.9,78,56,77,54.1,77.4C52.1,77.8,50.1,78,48,78z"/>
				<path id="Btn3_State3_adv" class="st6" d="M62.4,78.4L62.4,78.4c0.8,2,3.2,3,5.2,2.2l0,0c0.2-0.1,0.4-0.2,0.5-0.3
					c4.7-3,8.8-6.9,11.8-11.6c1.2-1.9,0.6-4.3-1.3-5.5c-0.2-0.1-0.4-0.2-0.6-0.3l0,0c-1.8-0.7-3.8-0.1-4.9,1.5
					c-2.4,3.7-5.5,6.8-9.2,9.2C62.3,74.5,61.7,76.6,62.4,78.4z"/>
				<path id="Btn3_State2_adv" class="st6" d="M78,48c0,2.2-0.2,4.4-0.7,6.6c-0.4,1.9,0.6,3.8,2.4,4.5l0,0c2,0.9,4.4-0.1,5.2-2.1
					c0.1-0.2,0.1-0.4,0.2-0.6c1.2-5.5,1.2-11.2,0-16.7c-0.5-2.2-2.6-3.5-4.8-3l0,0c-0.2,0.1-0.4,0.1-0.6,0.2l0,0
					c-1.8,0.7-2.8,2.7-2.4,4.5C77.8,43.6,78,45.8,78,48z"/>
				<path id="Btn3_State1_adv" class="st6" d="M78.1,33.3L78.1,33.3c2.1-0.8,3.1-3.1,2.2-5.2l0,0c-0.1-0.2-0.2-0.4-0.3-0.6
					c-3-4.7-7.1-8.7-11.8-11.6c-1.9-1.2-4.3-0.6-5.5,1.3l0,0c-0.1,0.2-0.2,0.4-0.3,0.6l0,0c-0.7,1.8,0,3.9,1.6,4.9
					c3.7,2.3,6.9,5.5,9.3,9.2C74.3,33.4,76.3,34,78.1,33.3z"/>
				<path id="Btn3_State0_adv" class="st6" d="M48,18c2.1,0,4.1,0.2,6.2,0.6c1.9,0.4,3.8-0.6,4.5-2.4l0,0c0.8-2-0.1-4.4-2.2-5.2l0,0
					c-0.3-0.1-0.5-0.2-0.8-0.2C53.2,10.3,50.6,10,48,10c-2.8,0-5.7,0.3-8.4,0.9c-2.2,0.5-3.5,2.6-3.1,4.8c0.1,0.2,0.1,0.5,0.2,0.7
					l0,0c0.7,1.8,2.7,2.8,4.6,2.4C43.5,18.2,45.7,18,48,18z"/>
			</g>
		</g>
		<g id="Ev_Start" class="st0">
			<g id="Bg_Th_Profile-3" class="st5">
				<path class="st15" d="M20.4,61.3h55.2c7.9,0,14.2,4.9,14.2,10.9v2.2c0,6-6.4,10.9-14.2,10.9H20.4c-7.9,0-14.2-4.9-14.2-10.9
					v-2.2C6.2,66.2,12.5,61.3,20.4,61.3z"/>
				<rect x="38.2" y="64" class="st15" width="19.6" height="19.6"/>
				<circle class="st15" cx="48" cy="74.2" r="2.4"/>
				<circle class="st15" cx="48" cy="67.3" r="2.4"/>
				<circle class="st15" cx="41.7" cy="74.2" r="2.4"/>
				<circle class="st15" cx="54.1" cy="74.2" r="2.4"/>
				<circle class="st15" cx="48" cy="80.3" r="2.4"/>
			</g>
			<g id="Play" class="st5">
				<path class="st16" d="M60.8,29l-23-14.2c-1.2-0.7-2.7-0.4-3.5,0.8C34.1,16,34,16.5,34,17v28.2c0,1.4,1.1,2.5,2.5,2.5
					c0.5,0,0.9-0.1,1.3-0.4l23-14.1c1.2-0.8,1.5-2.3,0.8-3.5C61.4,29.4,61.1,29.2,60.8,29z"/>
			</g>
		</g>
		<g id="Ev_Clap" class="st0">
			<g id="Bg_ClapHands" class="st5">
				<g id="fx">
					<path class="st9" d="M23,34.2h-6c-0.6,0-1-0.4-1-1s0.4-1,1-1h6c0.6,0,1,0.4,1,1S23.6,34.2,23,34.2z"/>
					<path class="st9" d="M17.8,41.2c-0.6,0-1-0.4-1-1c0-0.4,0.2-0.7,0.5-0.9l5.2-3c0.4-0.4,1-0.3,1.4,0.1c0.4,0.4,0.3,1-0.1,1.4
						c-0.1,0.1-0.2,0.1-0.3,0.2h-0.1l-5.2,3C18.2,41.1,18,41.2,17.8,41.2z"/>
				</g>
				<g id="fx-2">
					<path class="st9" d="M57.2,13.9c-0.6,0-1-0.4-1-1v-6c0-0.6,0.4-1,1-1s1,0.4,1,1v6C58.2,13.5,57.7,13.9,57.2,13.9z"/>
					<path class="st9" d="M61.2,14.1c-0.6,0-1-0.4-1-1c0-0.2,0-0.3,0.1-0.5l3-5.2c0.3-0.5,0.9-0.6,1.4-0.3c0.4,0.3,0.6,0.8,0.3,1.3
						l-3,5.2C61.8,13.9,61.5,14,61.2,14.1z"/>
				</g>
				<path id="HandBack" class="st17" d="M41.5,47.7L28.9,35.1c-0.9-0.8-1-2.2-0.3-3.1c0.1-0.1,0.2-0.2,0.3-0.3
					c0.4-0.4,1-0.7,1.6-0.7c0.7,0,1.3,0.2,1.8,0.7l9.2,9.1c0.2,0.2,0.5,0.2,0.8,0s0.2-0.5,0-0.8l0,0l-9.2-9l0,0l-4.5-4.5
					c-0.9-0.9-1-2.3-0.1-3.3c0.1-0.1,0.2-0.2,0.2-0.2c0.8-0.9,2.2-1,3.1-0.2l0,0c0.1,0.1,0.2,0.1,0.2,0.2l13.5,13.4
					c0.2,0.2,0.5,0.3,0.8,0.1c0.2-0.2,0.3-0.5,0.1-0.8c0,0,0-0.1-0.1-0.1L32.7,22.2l-1.4-1.4c-1-0.9-1-2.4-0.1-3.4l0.1-0.1
					c0.4-0.4,1-0.7,1.7-0.7c0.7,0,1.3,0.2,1.8,0.7l2.6,2.6l0,0l12.4,12.3c0.2,0.2,0.5,0.2,0.8,0c0.2-0.2,0.2-0.5,0-0.7l0,0l0,0
					L38.2,19.2c-0.9-0.9-0.9-2.3-0.1-3.2l0.2-0.2c0.8-0.9,2.2-1,3.1-0.2l0.2,0.2l15.6,15.5c0,0,0.4,0.6,0.9,0.5s0.4-0.7,0.4-0.8
					l-3.8-7.3c-0.9-1.6-0.3-3.6,1.3-4.5h0.1c0,0,1-0.5,1.4,0.3l6.2,11.8l0,0c2.8,5.3,1.9,11.8-2.2,16.2l0,0
					C55.9,53.1,47.1,53.1,41.5,47.7z"/>
				<g id="HandFront">
					<path id="HandFront-2" class="st18" d="M45.1,47.2L32.4,34.6c-0.9-0.8-1.1-2.2-0.3-3.1l0.3-0.3c0.4-0.4,1-0.7,1.6-0.7
						c0.7,0,1.3,0.2,1.8,0.7l9.1,9.1c0.2,0.2,0.5,0.2,0.8,0l0,0c0.2-0.2,0.2-0.5,0-0.8l-9.2-9.1l0,0L32.1,26c-0.9-0.9-0.9-2.4,0-3.3
						l0.2-0.1c0.8-0.9,2.2-1,3.1-0.2c0.1,0.1,0.1,0.1,0.2,0.2L49.1,36c0.2,0.2,0.5,0.2,0.8,0c0.2-0.2,0.2-0.5,0-0.7l0,0l0,0
						L36.3,21.7l-1.4-1.4c-1-0.9-1-2.4-0.1-3.3l0,0l0.1-0.1c0.4-0.4,1-0.7,1.6-0.7c0.7,0,1.3,0.2,1.8,0.7l2.7,2.6l0,0l12.4,12.4
						c0.2,0.2,0.5,0.3,0.8,0.1c0.2-0.2,0.3-0.5,0.1-0.8c0,0,0-0.1-0.1-0.1L41.7,18.8c-0.9-0.9-0.9-2.4,0-3.3c0-0.1,0.1-0.1,0.2-0.1
						c0.8-0.9,2.2-1,3.1-0.2c0.1,0.1,0.1,0.1,0.2,0.2L60.9,31c0,0,0.6,0.6,1,0.5s0.3-0.7,0.3-0.7l-3.8-7.3c-0.9-1.6-0.3-3.6,1.3-4.5
						l0.1-0.1c0,0,1-0.5,1.3,0.3L67.2,31l0,0c2.8,5.3,1.9,11.8-2.2,16.2l0,0C59.5,52.6,50.6,52.7,45.1,47.2z"/>
					<path class="st13" d="M62.4,45.2c2.6-4.8-0.4-10-2-12.1L60.3,33l-0.5-0.5L43,15.5l0,0c0.6-0.3,1.3-0.1,1.7,0.4l15.5,15.5
						c0.2,0.2,1,0.9,1.6,0.8c0.4-0.1,0.7-0.3,0.8-0.6c0.2-0.3,0.2-0.7,0.1-1l-0.1-0.1l-3.8-7.3c-0.7-1.2-0.3-2.8,0.9-3.5l0,0
						l0.2-0.1h0.3l6.2,11.8c2.7,5,1.8,11.2-2.1,15.4c-1.4,1.4-3.2,2.5-5.2,3.2C60.5,48.4,61.5,46.9,62.4,45.2z"/>
					<path id="shadow2" class="st13" d="M52.6,33L36.8,17c0.4,0,0.7,0.2,1,0.4L53,32.5c0.3,0.2,0.7,0.3,1.1,0.3
						C54.1,33.3,53.2,33.3,52.6,33z"/>
				</g>
			</g>
			<g id="Bg_Th_Profile-4" class="st5">
				<path class="st19" d="M68.5,83.2h-4.7c1.5,1,1.8,3,2.3,3.8c0.4,0.6,1.1,1,1.8,1h1c0.7,0,1.4-0.4,1.9-1c0.5-0.8,0.8-2.8,2.3-3.8
					H68.5z"/>
				<path class="st15" d="M18,59.2h60c1.1,0,2,0.9,2,2v20c0,1.1-0.9,2-2,2H18c-1.1,0-2-0.9-2-2v-20C16,60.1,16.9,59.2,18,59.2z"/>
				<circle class="st15" cx="34" cy="75.7" r="12.5"/>
				<path class="st20" d="M73,68.9h-5.1c-0.4,0-0.8-0.3-0.8-0.8s0.3-0.8,0.8-0.8H73c0.4,0,0.8,0.3,0.8,0.8S73.4,68.9,73,68.9z"/>
				<path class="st20" d="M79.2,68.9h-1.9c-0.4,0-0.8-0.3-0.8-0.8s0.3-0.8,0.8-0.8h1.9V68.9z"/>
			</g>
		</g>
		<g id="Ev_Acc_Hit" class="st0">
			<g id="Bg_Th_Profile-5" class="st5">
				<path class="st15" d="M18.2,42h59.9c8.6,0,15.4,5.3,15.4,11.8v2.4c0,6.5-6.9,11.8-15.4,11.8H18.2C9.6,68,2.7,62.7,2.7,56.2v-2.4
					C2.7,47.3,9.6,42,18.2,42z"/>
				<rect x="37.5" y="44.4" class="st15" width="21.3" height="21.3"/>
				<g>
					<circle class="st15" cx="48.1" cy="62.2" r="2.6"/>
					<circle class="st15" cx="48.1" cy="48.2" r="2.6"/>
					<circle class="st15" cx="41.1" cy="55.2" r="2.6"/>
					<circle class="st15" cx="55.1" cy="55.2" r="2.6"/>
					<circle class="st15" cx="48.1" cy="55.2" r="2.6"/>
				</g>
			</g>
			<path class="st21" d="M41,25.6c0.9,0.5,1.6,1.5,3.2,2.2c8.2,3.5,17.1,4.7,18.6,5c2.9,0.7,4.9-0.7,5.1-2.6c0,0-1.2,1.5-5.6,0.6
				s-15.5-3.4-16.2-3.5c-0.5-0.1-0.9-0.2-1.3-0.5C44.5,26.6,41.7,25,41,25.6z"/>
			<line id="Ground" class="st22" x1="8.1" y1="72" x2="88.1" y2="72"/>
			<g id="HandTap" class="st5">
				<path class="st23" d="M66.3,27.3c-0.4-0.9-1.5-1.7-3.4-2c-5-0.9-14.8-4-20.3-6c-4.1-1.5-11-19-11-19H11.9c0,0,8.7,13.6,11,16.5
					s3.8,7.5,8.9,11.1c4,2.9,9,4.4,15,7.6c4.3,2.3,8,1.2,8.1-1c0-1.7-1.1-3-5.1-4.4c-2.3-0.8-4.5-1.9-6.6-3.3
					c7.2,1.8,17.7,4.5,19.5,4.9c2.9,0.7,5.8-0.1,6-2.1S66.3,27.3,66.3,27.3z"/>
				<path class="st13" d="M19.1,0.3h-7.2c0,0,8.7,13.6,11,16.5s3.8,7.6,8.9,11.2c4,2.9,9,4.4,15,7.6c2.7,1.5,5.2,1.6,6.7,0.9
					l-14.2-6.9c-2.8-1.4-5.3-3.5-7.2-6C29.5,19.8,19.1,0.3,19.1,0.3z"/>
				<path class="st24" d="M66.9,26.5c-0.9-1.2-2.4-2-3.9-2.2c-6.8-1.3-13.5-3.3-20-6c-3.9-1.7-9.1-14.3-10.3-18h-2
					c0,0.1,5.8,17.3,11.5,19.9c1.4,0.6,3,1.2,4.8,1.9c-0.3,0.1-0.4,0.4-0.5,0.6c-0.1,0.5,0.2,1.1,0.7,1.2L66,28.3l0,0
					c0,0,1.8,0.4,1.7,1.4c-0.1,0.3-0.3,0.6-0.6,0.8c-1.3,0.7-2.8,0.8-4.2,0.4c-2.7-0.6-16.2-3.6-17.7-3.9c-1.3-0.8-2.6-1.6-3.8-2.5
					c-0.4-0.3-1.1-0.2-1.4,0.2l0,0c-0.3,0.4-0.2,1.1,0.2,1.4l0,0c2.8,2.1,5.8,3.7,9.1,4.9c4.1,1.5,4.5,2.5,4.4,3.4
					c0,0.4-0.3,0.8-0.7,0.9c-1.1,0.6-3.4,0.6-6-0.8s-4.9-2.4-7-3.4c-2.8-1.1-5.4-2.5-7.9-4.2c-2.7-2.1-4.9-4.7-6.5-7.7
					C25,18.1,24.3,17,23.5,16c-1.9-2.5-9-13.7-10.6-15.9H11c0,0.2,9,14.2,11.2,17.1c0.7,0.9,1.4,2,2,3c1.7,3.3,4.1,6.1,7.1,8.4
					c2.6,1.7,5.4,3.2,8.2,4.4c2.2,1,4.4,2,6.9,3.3c1.6,0.9,3.3,1.4,5.1,1.4c1,0,2-0.2,2.8-0.7c1-0.5,1.6-1.5,1.7-2.6
					c0-1.6-0.9-3-2.2-3.7c3.8,0.8,7.6,1.7,8.9,2c0.7,0.2,1.5,0.2,2.2,0.3c1.3,0,2.5-0.3,3.6-1c0.8-0.5,1.3-1.3,1.4-2.2
					C70,27.9,68.2,26.8,66.9,26.5z"/>
			</g>
			<g id="MotionLinesL" class="st5">
				<path class="st9" d="M23,36h-6c-0.6,0-1-0.4-1-1s0.4-1,1-1h6c0.6,0,1,0.4,1,1S23.6,36,23,36z"/>
				<path class="st9" d="M23,32c-0.2,0-0.3-0.1-0.5-0.1l-5.2-3c-0.5-0.3-0.6-0.9-0.4-1.4c0.3-0.5,0.9-0.6,1.4-0.4l5.2,3
					c0.5,0.3,0.6,0.9,0.4,1.4C23.7,31.9,23.4,32.1,23,32z"/>
			</g>
			<g id="MotionLinesR" class="st5">
				<path class="st9" d="M79,36h-6c-0.6,0-1-0.4-1-1s0.4-1,1-1h6c0.6,0,1,0.4,1,1S79.6,36,79,36z"/>
				<path class="st9" d="M73,32c-0.6,0-1-0.4-1-1c0-0.4,0.2-0.7,0.5-0.9l5.2-3c0.5-0.3,1.1-0.1,1.3,0.4c0.2,0.5,0.1,1-0.3,1.3
					l-5.2,3C73.4,32,73.2,32,73,32z"/>
			</g>
		</g>
		<g id="Ev_Acc_Fall" class="st0">
			<g id="Hand" class="st5">
				<path class="st18" d="M52.5,95.1v-0.8c0,0-0.3-4.8,6.8-9.3c4-2.6,3.9-4.8,2.5-6.1c-1.6-1.6-4.4,0.2-4.4,0.2s-3,1.8-6.5,4
					s-7.2-1.4-7.2-1.4L30.5,70.3c0,0-2.5-2.4-4.5-0.6c-1.1,1-1.3,2.6-0.3,3.8c0,0-2.4-2.4-3.9-0.5c-0.5,0.5-0.7,1.3-0.3,2l-0.1,0.1
					c-1,1.2-0.9,3,0.3,4l2.6,2.2c-2.1,0.9-0.8,2.9-0.8,2.9s5.3,4.4,7.6,6.4c1.3,1,2.5,2.2,3.6,3.5c0,0,0.1,0.1,0.1,0.2v0.8"/>
				<path class="st13" d="M24.1,82.2c-0.5,0.3-0.2,1.2,0,1.5l7.3,6.1c0.2-0.4,0.2-0.9,0-1.3L24.1,82.2z"/>
				<path class="st13" d="M32.5,87.5c-0.1-0.1-6.8-5.8-6.8-5.8L22,78.5c-0.4-0.4-0.6-0.8-0.6-1.3l10.9,9.5
					C32.5,86.8,32.6,87.2,32.5,87.5z"/>
				<path class="st13" d="M26.3,73c-0.5-0.5-0.6-1.2-0.4-1.9L38,82.2c0,0,0.7,1,0.3,1.3C38.2,83.6,26.3,73,26.3,73z"/>
				<path class="st13" d="M34.6,85.6C34.5,85.5,22.5,75,22.5,75c-0.4-0.3-0.6-0.9-0.3-1.4c0-0.1,0.1-0.2,0.2-0.3l11.9,10.5
					c0.3,0.3,0.5,0.7,0.5,1.1C34.8,85.5,34.6,85.6,34.6,85.6z"/>
				<path class="st13" d="M47.8,95.1c0.5-5.8,5.8-9.3,8.7-11.1c4.7-3,4.8-4.6,4.8-4.6c0.4,0.4,0.6,0.9,0.6,1.5
					c-0.1,0.7-0.7,1.9-3,3.4c-6.4,4.1-7,8.5-7.1,9.8v1L47.8,95.1z"/>
				<path class="st25" d="M34,86L22.2,75.8c-0.9-0.6-1.1-1.8-0.5-2.7l0,0l0.1-0.1c1.5-1.9,3.9,0.5,3.9,0.5l12,10.5"/>
				<line class="st25" x1="21.6" y1="79" x2="32" y2="88"/>
			</g>
			<g id="fx-3" class="st5">
				<path class="st9" d="M41.5,16.9c-0.6,0-1-0.4-1-1V4.8c0-0.6,0.4-1,1-1s1,0.4,1,1v11.1C42.5,16.4,42.1,16.9,41.5,16.9z"/>
				<path class="st9" d="M20.7,27.3c-0.6,0-1-0.4-1-1V14.2c0-0.6,0.4-1,1-1s1,0.4,1,1v12.1C21.7,26.9,21.2,27.3,20.7,27.3z"/>
				<path class="st9" d="M35.5,14.1c-0.6,0-1-0.4-1-1V7.4c0-0.6,0.4-1,1-1s1,0.4,1,1V13C36.5,13.6,36.1,14.1,35.5,14.1L35.5,14.1z"
					/>
			</g>
			<g id="Bg_Th_Profile-6" class="st5">
				<path class="st19" d="M53.3,68.2l-2.9-2.9c0.3,1.6-0.8,3-0.9,3.8c-0.1,0.6,0.1,1.3,0.5,1.8l0.6,0.6c0.5,0.4,1.1,0.6,1.8,0.6
					c0.8-0.2,2.2-1.2,3.8-0.9L53.3,68.2z"/>
				<path class="st15" d="M22.2,34.2l12-12c0.8-0.8,2-0.8,2.8,0L73.8,59c0.8,0.8,0.8,2,0,2.8l-12,12c-0.8,0.8-2,0.8-2.8,0L22.2,37.1
					C21.4,36.3,21.4,35,22.2,34.2z"/>
				<circle class="st15" cx="36.5" cy="42.2" r="10.9"/>
				<line class="st26" x1="61.7" y1="58" x2="64.8" y2="61.1"/>
				<line class="st26" x1="67.5" y1="63.8" x2="69.1" y2="65.4"/>
			</g>
		</g>
		<g id="Ev_Accel_bas" class="st0">
			<g id="Ground_accel" class="st5">
				<path class="st9" d="M88,76H8c-0.6,0-1-0.4-1-1s0.4-1,1-1h80c0.6,0,1,0.4,1,1S88.6,76,88,76z"/>
			</g>
			<g id="ThymioUpsideDown" class="st5">
				<path class="st19" d="M30.1,52.2h4.1c-1.3-0.9-1.6-2.6-2-3.3c-0.4-0.5-1-0.8-1.6-0.8h-0.8c-0.7,0-1.3,0.4-1.7,0.9
					c-0.5,0.7-0.7,2.5-2,3.3h4.1L30.1,52.2z"/>
				<path class="st15" d="M22,52.2h52c1.1,0,2,0.9,2,2v17c0,1.1-0.9,2-2,2H22c-1.1,0-2-0.9-2-2v-17C20,53.1,20.9,52.2,22,52.2z"/>
				<circle class="st15" cx="60.3" cy="58.8" r="10.9"/>
				<line class="st26" x1="31.3" y1="65.4" x2="26.9" y2="65.4"/>
				<line class="st26" x1="23" y1="65.4" x2="20.8" y2="65.4"/>
			</g>
			<g id="ThymioSideDown" class="st5">
				<path class="st15" d="M37.4,18.8h16.5c1.1,0,2,0.9,2,2v50.5c0,1.1-0.9,2-2,2H37.4c-1.1,0-2-0.9-2-2V20.8
					C35.4,19.7,36.3,18.8,37.4,18.8z"/>
				<path class="st19" d="M55.9,50.1c0.9-1.3,2.5-1.6,3.2-2c0.5-0.4,0.9-1,0.9-1.6v-0.8c0-0.7-0.3-1.3-0.8-1.7
					c-0.7-0.5-2.3-0.7-3.2-2L55.9,50.1z"/>
				<g>
					<path class="st20" d="M45,37.2c-0.4,0-0.7-0.3-0.7-0.8V32c0-0.4,0.3-0.7,0.7-0.7s0.7,0.3,0.7,0.7l0,0l0,0v4.5
						C45.7,36.9,45.4,37.2,45,37.2L45,37.2L45,37.2z"/>
					<path class="st20" d="M45,61.2c-0.4,0-0.7-0.3-0.7-0.7v-4.6c0-0.4,0.3-0.7,0.7-0.7s0.7,0.3,0.7,0.7v4.6
						C45.7,60.9,45.4,61.2,45,61.2L45,61.2L45,61.2L45,61.2z"/>
				</g>
				<path class="st27" d="M45.3,51.2c-0.3,0-0.5-0.2-0.5-0.5v-3c0-0.3,0.2-0.5,0.5-0.5l0,0l0,0c0.3,0,0.5,0.2,0.5,0.5v3
					C45.8,51,45.5,51.2,45.3,51.2z"/>
				<path class="st27" d="M45.3,44c-0.3,0-0.5-0.2-0.5-0.5v-3c0-0.3,0.2-0.5,0.5-0.5l0,0l0,0c0.3,0,0.5,0.2,0.5,0.5v3
					C45.7,43.8,45.5,44,45.3,44z"/>
				<g>
					<path class="st28" d="M55.8,31.3v-8.5h2.8c0.7,0,1.2,0.5,1.2,1.2l0,0v6c0,0.7-0.6,1.2-1.2,1.2L55.8,31.3L55.8,31.3z"/>
					<path class="st20" d="M58.6,23.5c0.3,0,0.5,0.2,0.5,0.5v6c0,0.3-0.2,0.5-0.5,0.5h-2v-7H58.6 M58.6,22h-3.5v10h3.5
						c1.1,0,2-0.9,2-2v-6C60.6,22.9,59.7,22,58.6,22z"/>
				</g>
				<g>
					<path class="st28" d="M55.8,69.3v-8.5h2.8c0.7,0,1.2,0.5,1.2,1.2v6c0,0.7-0.5,1.2-1.2,1.2l0,0L55.8,69.3z"/>
					<path class="st20" d="M58.6,61.5c0.3,0,0.5,0.2,0.5,0.5v6c0,0.3-0.2,0.5-0.5,0.5h-2v-7H58.6 M58.6,60.1h-3.5V70h3.5
						c1.1,0,2-0.9,2-2v-6C60.6,60.9,59.7,60,58.6,60.1L58.6,60.1z"/>
				</g>
			</g>
		</g>
		<g id="Ev_Accel" class="st0">
			<g id="Rot360Rail" class="st5">
				<g id="Gravity_arrow">
					<polyline class="st29" points="13,83 9,87.1 4.9,83 					"/>
					<line class="st30" x1="9" y1="87" x2="9" y2="75"/>
				</g>
				<g id="_360Rot_rail">
					<g>
						<path class="st31" d="M81.9,26.8c-3.2-5.1-7.5-9.4-12.6-12.6"/>
						<path class="st31" d="M88,46.6c-0.2-6-1.8-11.9-4.6-17.2"/>
						<path class="st31" d="M26.7,14.2c-5.1,3.2-9.4,7.5-12.6,12.6"/>
						<path class="st31" d="M49.5,88.1c6-0.2,11.9-1.8,17.2-4.6"/>
						<path class="st31" d="M69.3,82c5.1-3.2,9.4-7.5,12.6-12.6"/>
						<path class="st31" d="M83.4,66.8c2.8-5.3,4.4-11.2,4.6-17.2"/>
						<path class="st31" d="M66.7,12.7c-5.3-2.8-11.2-4.4-17.2-4.6"/>
						<path class="st31" d="M29.3,83.5c5.3,2.8,11.2,4.4,17.2,4.6"/>
						<path class="st31" d="M12.6,29.4C9.8,34.7,8.2,40.6,8,46.6"/>
						<path class="st31" d="M14.1,69.4c3.2,5.1,7.5,9.4,12.6,12.6"/>
						<path class="st31" d="M46.5,8.1c-6,0.2-11.9,1.8-17.2,4.6"/>
						<path class="st31" d="M8,49.6c0.2,6,1.8,11.9,4.6,17.2"/>
					</g>
				</g>
			</g>
			<g id="Acc0" class="st5">
				<g id="Bg_Th_Profile-7">
					<path class="st19" d="M68.5,57.5h-4.7c1.5,1,1.8,3,2.3,3.8c0.4,0.6,1.1,1,1.9,1h1c0.7,0,1.4-0.4,1.9-1c0.5-0.8,0.8-2.8,2.3-3.8
						H68.5z"/>
					<path class="st15" d="M18,33.5h60c1.1,0,2,0.9,2,2v20c0,1.1-0.9,2-2,2H18c-1.1,0-2-0.9-2-2v-20C16,34.4,16.9,33.5,18,33.5z"/>
					<circle class="st15" cx="34" cy="50" r="12.5"/>
					<path class="st20" d="M73,43.2h-5.1c-0.4,0-0.8-0.3-0.8-0.8s0.3-0.8,0.8-0.8H73c0.4,0,0.8,0.3,0.8,0.8S73.4,43.2,73,43.2z"/>
					<path class="st20" d="M79.2,43.2h-1.9c-0.4,0-0.8-0.3-0.8-0.8s0.3-0.8,0.8-0.8h1.9V43.2z"/>
				</g>
				<g id="Rot360_Handle_0">
					<circle id="RotationCenter0" class="st32" cx="48" cy="48" r="3"/>
					<circle id="Btn2_HandleAcc0" class="st33" cx="48" cy="8.2" r="5"/>
				</g>
			</g>
			<g id="Acc1" class="st5">
				<g id="ThymioAcc1">
					<path class="st15" d="M18,33.5h60c1.1,0,2,0.9,2,2v20c0,1.1-0.9,2-2,2H18c-1.1,0-2-0.9-2-2v-20C16,34.4,16.9,33.5,18,33.5z"/>
					<path class="st19" d="M78.3,57.5v4c0,0.5-0.4,1-0.9,1h-6.1c-0.6,0-1-0.4-1-1v-4H78.3z"/>
					<path class="st19" d="M25.8,57.5v4c0,0.6-0.4,1-1,1h-6c-0.5,0-1-0.5-1-1v-4H25.8z"/>
					<path class="st19" d="M43.4,57.5c1.5,1,1.8,2.9,2.3,3.7c0.4,0.6,1.1,1,1.9,1h1c0.7,0,1.4-0.4,1.9-1c0.5-0.8,0.8-2.7,2.3-3.7
						H43.4z"/>
					<line class="st26" x1="59.2" y1="45.3" x2="65.2" y2="45.2"/>
					<line class="st26" x1="36.8" y1="45.2" x2="30.8" y2="45.3"/>
					<line class="st34" x1="54.5" y1="45.2" x2="51.4" y2="45.3"/>
					<line class="st35" x1="41.5" y1="45.2" x2="46.7" y2="45.2"/>
				</g>
				<g id="Rot360_Handle_1">
					<circle id="RotationCenter1" class="st32" cx="48" cy="48" r="3"/>
					<circle id="Btn2_HandleAcc1" class="st33" cx="48" cy="8.2" r="5"/>
				</g>
			</g>
			<g id="Acc2" class="st5">
				<g id="ThymioAcc2">
					<path class="st36" d="M48,24.1c-8.7,0-17.1,3.4-23.3,9.6c-0.5,0.4-0.7,1.1-0.7,1.7V70c0,1.1,0.9,2,2,2h44c1.1,0,2-0.9,2-2V35.4
						c0-0.6-0.2-1.2-0.7-1.7C65.1,27.5,56.7,24.1,48,24.1z"/>
					<path class="st37" d="M48,24.1c-8.9,0-17.4,3.5-23.6,9.9c-0.3,0.3-0.4,0.6-0.4,1v35.5c0,0.8,0.6,1.5,1.5,1.5l0,0h45
						c0.8,0,1.5-0.7,1.5-1.5l0,0V35c0-0.4-0.2-0.7-0.5-1C65.3,27.7,56.8,24.1,48,24.1z"/>
					<g>
						<circle id="center-5" class="st7" cx="47.9" cy="37.2" r="2.5"/>
						<path id="up-5" class="st7" d="M49.7,42c0.4,0,0.6,0.3,0.4,0.7l-1.8,3.1c-0.1,0.2-0.3,0.3-0.5,0.3l0,0c-0.1,0-0.2-0.1-0.2-0.2
							l-1.8-3c-0.2-0.4,0-0.7,0.4-0.7L49.7,42z"/>
						<path id="down-5" class="st7" d="M49.7,32.5c0.4,0,0.6-0.3,0.4-0.7l-1.8-3.1c-0.1-0.2-0.3-0.3-0.5-0.3l0,0
							c-0.1,0-0.2,0.1-0.2,0.2l-1.8,3c-0.2,0.4,0,0.7,0.4,0.7L49.7,32.5z"/>
						<path id="right-5" class="st7" d="M43.2,39c0,0.4-0.3,0.6-0.7,0.4l-3.1-1.8c-0.2-0.1-0.3-0.3-0.3-0.5c0-0.1,0.1-0.2,0.3-0.3
							l3-1.8c0.2-0.1,0.4-0.1,0.6,0.1c0.1,0.1,0.1,0.2,0.1,0.3L43.2,39z"/>
						<path id="left-5" class="st7" d="M52.7,39c0,0.4,0.3,0.6,0.7,0.4l3.1-1.8c0.2-0.1,0.3-0.3,0.3-0.5l0,0c0-0.1-0.1-0.2-0.3-0.3
							l-3-1.8c-0.2-0.1-0.4-0.1-0.6,0.1c-0.1,0.1-0.1,0.2-0.1,0.3L52.7,39z"/>
					</g>
				</g>
				<g id="Rot360_Handle_2">
					<circle id="RotationCenter2" class="st32" cx="48" cy="48" r="3"/>
					<circle id="Btn2_HandleAcc2" class="st33" cx="48" cy="8.2" r="5"/>
				</g>
			</g>
		</g>
		<g id="Ev_ProxH_med">
			<path id="ThymioTop_Bg" class="st38" d="M48,8.1C33.5,8,19.5,13.8,9.2,24c-0.7,0.8-1.2,1.8-1.1,2.8L8,84.6c0,1.8,1.5,3.3,3.3,3.4
				l0,0h73.3c1.8,0,3.3-1.5,3.3-3.3l0,0L88,27c0-1.1-0.4-2.1-1.2-2.8C76.6,13.9,62.6,8.1,48,8.1z"/>
			<g id="ThymioTop_wheels">
				<path class="st15" d="M47.8,8.4C26,8.4,8.3,26,8.3,47.9c0,6.7,1.7,13,4.7,18.6l3.3-3.3L31,77.8l-3.8,3.8c6,3.6,13,5.8,20.6,5.8
					c21.9,0,39.5-17.7,39.5-39.5S69.7,8.4,47.8,8.4z"/>
				<circle class="st15" cx="47.8" cy="47.9" r="30.6"/>
			</g>
			<g id="ProxSensors">
				<rect id="Btn3_Prox2" x="42" y="7.3" class="st39" width="12" height="12"/>
				<rect id="Btn3_Prox5" x="40.3" y="76.6" class="st39" width="12" height="12"/>
				<rect id="Btn3_Prox6" x="76.3" y="42" class="st39" width="12" height="12"/>
				
					<rect id="Btn3_Prox0" x="7.3" y="42.3" transform="matrix(1.376728e-02 -0.9999 0.9999 1.376728e-02 -35.1759 60.4235)" class="st40" width="11.4" height="11.4"/>
			</g>
			<g id="Obstacles">
				<line id="Obst_prox2" class="st41" x1="41.9" y1="4.4" x2="53.9" y2="4.4"/>
				<line id="Obst_prox5" class="st41" x1="39.8" y1="92" x2="52.2" y2="92"/>
				<line id="Obst_prox6" class="st41" x1="92.4" y1="41.7" x2="92.4" y2="54.1"/>
				<line id="Obst_prox0" class="st41" x1="3" y1="53.1" x2="3.2" y2="42.6"/>
			</g>
		</g>
		<g id="Ev_ProxH_Front_adv" class="st0">
			<g id="Thymio_shape" class="st5">
				<path class="st36" d="M0.1,44.9l3.6-3.6c0.7-0.7,1.6-1.1,2.5-1.1c13.1,0,25.6,5.3,34.9,14.6c9.3,9.2,14.5,21.8,14.5,34.9
					c0,1-0.4,1.9-1.1,2.5L50.8,96H2.1c-1.1,0-2-0.9-2-2L0.1,44.9z"/>
				<path class="st20" d="M51.9,96h-2.2l4.3-4.3c0.5-0.5,0.8-1.2,0.8-2c0-12.9-5.1-25.3-14.3-34.4C31.5,46.1,19.2,41,6.3,41l0,0
					c-0.8,0-1.5,0.3-2,0.8L0.1,46v-2.2l3.1-3.1c0.8-0.8,1.9-1.3,3.1-1.3l0,0c13.3,0,26,5.3,35.4,14.8c9.4,9.4,14.7,22.1,14.7,35.4
					c0,1.2-0.5,2.3-1.3,3.1L51.9,96z"/>
			</g>
			<g class="st5">
				
					<rect id="Btn3_Prox4_adv" x="43.8" y="80" transform="matrix(0.9925 -0.1219 0.1219 0.9925 -10.077 6.6737)" class="st42" width="11.4" height="11.4"/>
				
					<rect id="Btn3_Prox3_adv" x="39.7" y="66.2" transform="matrix(0.8988 -0.4384 0.4384 0.8988 -26.9537 27.2444)" class="st43" width="11.6" height="11.6"/>
				
					<rect id="Btn3_Prox2_adv" x="30.6" y="53.5" transform="matrix(0.7071 -0.7071 0.7071 0.7071 -31.3279 43.3158)" class="st44" width="12" height="12"/>
				
					<rect id="Btn3_Prox1_adv" x="18.4" y="44.8" transform="matrix(0.4384 -0.8988 0.8988 0.4384 -31.884 50.1047)" class="st43" width="11.6" height="11.6"/>
				
					<rect id="Btn3_Prox0_adv" x="4.7" y="40.8" transform="matrix(0.1219 -0.9925 0.9925 0.1219 -37.0712 51.1888)" class="st42" width="11.4" height="11.4"/>
			</g>
			<g id="Slid_threshold" class="st5">
				<line id="value_threshold_off" class="st45" x1="84.1" y1="8" x2="16.1" y2="8"/>
				<g id="value_threshold">
					<line id="value_threshold-2" class="st46" x1="78.5" y1="8" x2="21.6" y2="8"/>
					<g id="steps">
						<line class="st47" x1="21.6" y1="4" x2="21.6" y2="3"/>
						<line class="st47" x1="40.6" y1="4" x2="40.6" y2="3"/>
						<line class="st47" x1="59.6" y1="4" x2="59.6" y2="3"/>
						<line class="st47" x1="78.5" y1="4" x2="78.5" y2="3"/>
					</g>
				</g>
				<polygon id="cursor_threshold" class="st48" points="73.5,10.5 78.5,7 83.5,10.5 83.5,17 73.5,17 				"/>
			</g>
		</g>
		<g id="Ev_ProxH_Back_adv" class="st0">
			<g id="Slid_threshold_back" class="st5">
				<line id="value_threshold_back_off" class="st45" x1="82" y1="82.1" x2="12" y2="82.1"/>
				<g id="value_threshold_back">
					<line id="value_thresholdBack" class="st46" x1="76.1" y1="82.1" x2="19.2" y2="82.1"/>
					<g id="crans">
						<line class="st47" x1="19.2" y1="78" x2="19.2" y2="77"/>
						<line class="st47" x1="38.2" y1="78" x2="38.2" y2="77"/>
						<line class="st47" x1="57.2" y1="78" x2="57.2" y2="77"/>
						<line class="st47" x1="76.1" y1="78" x2="76.1" y2="77"/>
					</g>
				</g>
				<polygon id="cursor_threshold_back" class="st48" points="14.3,84.6 19.3,81.1 24.3,84.6 24.3,91.1 14.3,91.1 				"/>
			</g>
			<g id="Thymio_shape_back" class="st5">
				<path class="st15" d="M12,0.1V29c0,1.7,1.3,3,3,3l0,0l0,0l66,0.1c1.7,0,3-1.3,3-3V0"/>
			</g>
			<rect id="Btn3_Prox5_adv" x="26.1" y="17.6" class="st49" width="12" height="12"/>
			<rect id="Btn3_Prox6_adv" x="58" y="17.6" class="st49" width="12" height="12"/>
		</g>
		<g id="Ev_ProxGr_bas" class="st0">
			<g id="Bg_Th_Profile-8" class="st5">
				<path class="st19" d="M68.5,57.5h-4.7c1.5,1,1.8,3,2.3,3.8c0.4,0.6,1.1,1,1.9,1h1c0.7,0,1.4-0.4,1.9-1c0.5-0.8,0.8-2.8,2.3-3.8
					H68.5z"/>
				<path class="st15" d="M18,33.5h60c1.1,0,2,0.9,2,2v20c0,1.1-0.9,2-2,2H18c-1.1,0-2-0.9-2-2v-20C16,34.4,16.9,33.5,18,33.5z"/>
				<circle class="st15" cx="34" cy="50" r="12.5"/>
				<path class="st50" d="M73,43.3h-5.1c-0.4,0-0.8-0.3-0.8-0.8s0.3-0.8,0.8-0.8H73c0.4,0,0.8,0.3,0.8,0.8S73.4,43.3,73,43.3z"/>
				<path class="st50" d="M79.2,43.3h-1.9c-0.4,0-0.8-0.3-0.8-0.8s0.3-0.8,0.8-0.8h1.9V43.3z"/>
			</g>
			<path id="btn2_ProxGd_detection" class="st51" d="M12,64h72c2.2,0,4,1.8,4,4v4c0,2.2-1.8,4-4,4H12c-2.2,0-4-1.8-4-4v-4
				C8,65.8,9.8,64,12,64z"/>
		</g>
		<g id="Ev_ProxGr_med" class="st0">
			<g id="ThymioTop_wheels_1_" class="st5">
				<path class="st15" d="M48,14c-19.2,0-34.7,15.5-34.7,34.7c0,5.9,1.5,11.4,4.1,16.3l2.9-2.9L33.2,75l-3.3,3.3
					c5.3,3.2,11.4,5.1,18.1,5.1c19.2,0,34.7-15.5,34.7-34.7S67.2,14,48,14z"/>
				<circle class="st15" cx="48" cy="48.7" r="26.9"/>
			</g>
			<g id="ProxGround" class="st5">
				<rect id="Btn3_ProxGd1" x="59" y="43.5" class="st52" width="10.4" height="10.4"/>
				<rect id="Btn3_ProxGd0" x="25.9" y="42.8" class="st52" width="10.4" height="10.4"/>
			</g>
		</g>
		<g id="Ev_ProxGround_adv" class="st0">
			<path id="GradientStroke_bg" class="st53" d="M68,4.1v44H4V4L68,4.1 M68,3H4C3.4,3,3,3.5,3,4v44c0,0.6,0.4,1,1,1h64
				c0.6,0,1-0.4,1-1V4C69,3.5,68.6,3,68,3z"/>
			<g class="st5">
				
					<linearGradient id="Gradient_proxGd_0_1_" gradientUnits="userSpaceOnUse" x1="20.1078" y1="-934.4676" x2="19.8978" y2="-891.4476" gradientTransform="matrix(1 0 0 -1 0 -886.18)">
					<stop  offset="0" style="stop-color:#000000"/>
					<stop  offset="6.000000e-02" style="stop-color:#252525"/>
					<stop  offset="0.16" style="stop-color:#585858"/>
					<stop  offset="0.26" style="stop-color:#848484"/>
					<stop  offset="0.37" style="stop-color:#AAAAAA"/>
					<stop  offset="0.48" style="stop-color:#C9C9C9"/>
					<stop  offset="0.59" style="stop-color:#E1E1E1"/>
					<stop  offset="0.71" style="stop-color:#F2F2F2"/>
					<stop  offset="0.84" style="stop-color:#FCFCFC"/>
					<stop  offset="1" style="stop-color:#FFFFFF"/>
				</linearGradient>
				<rect id="Gradient_proxGd_0" x="4" y="4.1" class="st54" width="32" height="44.2"/>
				
					<linearGradient id="Gradient_proxGd_1_1_" gradientUnits="userSpaceOnUse" x1="52.1078" y1="-934.4674" x2="51.8978" y2="-891.4474" gradientTransform="matrix(1 0 0 -1 0 -886.18)">
					<stop  offset="0" style="stop-color:#000000"/>
					<stop  offset="6.000000e-02" style="stop-color:#252525"/>
					<stop  offset="0.16" style="stop-color:#585858"/>
					<stop  offset="0.26" style="stop-color:#848484"/>
					<stop  offset="0.37" style="stop-color:#AAAAAA"/>
					<stop  offset="0.48" style="stop-color:#C9C9C9"/>
					<stop  offset="0.59" style="stop-color:#E1E1E1"/>
					<stop  offset="0.71" style="stop-color:#F2F2F2"/>
					<stop  offset="0.84" style="stop-color:#FCFCFC"/>
					<stop  offset="1" style="stop-color:#FFFFFF"/>
				</linearGradient>
				<rect id="Gradient_proxGd_1" x="36" y="4.1" class="st55" width="32" height="44.2"/>
			</g>
			<g id="ThymioTop_wheels-2" class="st5">
				<path class="st36" d="M36,28.1c-10.2,0-19.9,4-27.1,11.2c-0.5,0.5-0.8,1.3-0.8,2v40.4c0,1.3,1,2.3,2.3,2.3h51.3
					c1.3,0,2.4-1,2.4-2.3l0,0V41.3c0-0.7-0.3-1.5-0.8-2C56,32.1,46.2,28,36,28.1z"/>
				<path class="st56" d="M59,56.1h3c1.1,0,2,0.9,2,2v19.3c0,1.1-0.9,2-2,2h-3c-1.1,0-2-0.9-2-2V58.1C57,57,57.9,56.1,59,56.1z"/>
				<path class="st56" d="M10,56.1h3c1.1,0,2,0.9,2,2v19.3c0,1.1-0.9,2-2,2h-3c-1.1,0-2-0.9-2-2V58.1C8,57,8.9,56.1,10,56.1z"/>
				<path class="st37" d="M36,28.1c-10.3,0-20.2,4.1-27.5,11.5C8.2,39.9,8,40.3,8,40.8v41.5c0,1,0.8,1.8,1.7,1.8h52.5
					c1,0,1.8-0.7,1.8-1.7l0,0V40.8c0-0.5-0.2-0.9-0.5-1.2C56.3,32.2,46.3,28,36,28.1z"/>
			</g>
			<g id="Slid_threshold_proxGd" class="st5">
				<g id="slider_threshold_proxGd">
					<line id="value_threshold_back_off-2" class="st45" x1="82.1" y1="12.1" x2="82.1" y2="82"/>
					<g id="value_threshold_back-2">
						<line id="value_thresholdBack-2" class="st46" x1="82.1" y1="18.6" x2="82.1" y2="75.5"/>
						<g id="crans-2">
							<line class="st47" x1="78" y1="75.5" x2="77" y2="75.5"/>
							<line class="st47" x1="78" y1="47" x2="77" y2="47"/>
							<line class="st47" x1="78" y1="61.3" x2="77" y2="61.3"/>
							<line class="st47" x1="78" y1="32.8" x2="77" y2="32.8"/>
							<line class="st47" x1="78" y1="18.6" x2="77" y2="18.6"/>
						</g>
					</g>
				</g>
				<g id="Cursor_proxGd">
					<polygon class="st57" points="84.5,51.5 81,47.2 84.5,42.9 91,42.9 91,51.5 					"/>
					<path class="st58" d="M91,52.5h-6.5c-0.3,0-0.6-0.1-0.8-0.4l-3.5-4.3c-0.3-0.4-0.3-0.9,0-1.3l3.5-4.3c0.2-0.2,0.5-0.4,0.8-0.4
						H91c0.6,0,1,0.4,1,1v8.7C92,52.1,91.6,52.5,91,52.5z M85,50.5h5v-6.7h-5l-2.7,3.3L85,50.5z"/>
				</g>
			</g>
			
				<rect id="Btn3_ProxGd1_adv" x="41" y="32.9" transform="matrix(0.1736 -0.9848 0.9848 0.1736 0.4537 78.4324)" class="st59" width="12" height="12"/>
			
				<rect id="Btn3_ProxGd0_adv" x="19" y="33" transform="matrix(0.9848 -0.1736 0.1736 0.9848 -6.3925 4.9325)" class="st59" width="12" height="12"/>
		</g>
		<g id="EvCounter" class="st0">
			<path id="Bg_SelectedOperator" class="st60" d="M78,48L78,48c0,5.5-4.5,10-10,10H28c-5.5,0-10-4.5-10-10l0,0c0-5.5,4.5-10,10-10
				h40C73.5,38,78,42.5,78,48z"/>
			<g id="List_operators" class="st5">
				<g id="AboveValue">
					<path class="st61" d="M36,50.4l-6.8-3.2c-0.2-0.1-0.3-0.2-0.5-0.3c-0.1-0.1-0.1-0.3-0.1-0.5v-0.6c0-0.2,0-0.3,0.1-0.5
						c0.1-0.1,0.3-0.3,0.5-0.3l6.8-3.2c0.1-0.1,0.3-0.1,0.4-0.1c0.1,0,0.2,0,0.3,0.1s0.1,0.2,0.1,0.3v1.2c0,0.3-0.2,0.6-0.5,0.7
						l-4.8,2.1l4.8,2.2c0.3,0.1,0.5,0.4,0.5,0.7v1.2c0,0.2-0.2,0.4-0.4,0.4l0,0l0,0C36.3,50.5,36.1,50.5,36,50.4z M28.8,54.3
						c-0.1-0.1-0.1-0.2-0.1-0.3v-1.1c0-0.1,0-0.3,0.1-0.3c0.1-0.1,0.2-0.1,0.3-0.1h7.2c0.2,0,0.5,0.2,0.5,0.4c0,0,0,0,0,0.1v1
						c0,0.1,0,0.3-0.1,0.3c-0.1,0.1-0.2,0.1-0.3,0.1h-7.2C29,54.5,28.9,54.4,28.8,54.3L28.8,54.3z"/>
				</g>
				<path id="AboveValue-2" class="st61" d="M36,52.3l-6.8-3.2c-0.2-0.1-0.3-0.2-0.5-0.3c-0.1-0.1-0.1-0.3-0.1-0.5v-0.6
					c0-0.2,0-0.3,0.1-0.5c0.1-0.1,0.3-0.3,0.5-0.3l6.8-3.2c0.1-0.1,0.3-0.1,0.4-0.1c0.1,0,0.2,0,0.3,0.1s0.1,0.2,0.1,0.3v1.2
					c0,0.3-0.2,0.6-0.5,0.7L31.5,48l4.8,2.2c0.3,0.1,0.5,0.4,0.5,0.7v1.2c0,0.2-0.2,0.4-0.4,0.4l0,0l0,0
					C36.3,52.5,36.1,52.4,36,52.3z"/>
				<path id="StrictBelowValue" class="st61" d="M29.5,43.7l6.8,3.3c0.4,0.1,0.6,0.4,0.6,0.8v0.6c0,0.2,0,0.3-0.1,0.5
					s-0.3,0.3-0.5,0.3l-6.8,3.2c-0.1,0.1-0.3,0.1-0.4,0.1s-0.2,0-0.3-0.1c-0.1-0.1-0.1-0.2-0.1-0.3v-1.3c0-0.3,0.2-0.6,0.5-0.7
					L34,48l-4.8-2.2c-0.3-0.1-0.5-0.4-0.5-0.7V44c0-0.1,0-0.2,0.1-0.3s0.2-0.1,0.3-0.1C29.2,43.6,29.4,43.6,29.5,43.7z"/>
				<g id="BelowValue">
					<path class="st61" d="M28.5,50.4c-0.1-0.1-0.1-0.2-0.1-0.3V49c0-0.3,0.2-0.6,0.5-0.7l4.8-2.2L28.9,44c-0.3-0.1-0.5-0.4-0.5-0.7
						V42c0-0.1,0-0.2,0.1-0.3s0.2-0.1,0.3-0.1c0.1,0,0.3,0.1,0.4,0.1L36,45c0.2,0.1,0.3,0.2,0.4,0.4c0.1,0.1,0.2,0.3,0.1,0.5v0.6
						c0,0.2,0,0.3-0.1,0.5c-0.1,0.1-0.3,0.3-0.4,0.3l-6.8,3.2c-0.1,0.1-0.3,0.1-0.4,0.1S28.6,50.5,28.5,50.4z M28.5,54.3
						c-0.1-0.1-0.1-0.2-0.1-0.3v-1.1c0-0.1,0-0.3,0.1-0.3c0.1-0.1,0.2-0.1,0.3-0.1H36c0.1,0,0.3,0,0.3,0.1c0.1,0.1,0.1,0.2,0.1,0.3
						V54c0,0.3-0.2,0.5-0.5,0.5h-7.2C28.7,54.5,28.5,54.4,28.5,54.3L28.5,54.3z"/>
				</g>
				<g id="Equals">
					<path class="st61" d="M28.2,46.4c-0.1-0.1-0.1-0.2-0.1-0.3V45c0-0.1,0-0.3,0.1-0.3c0.1-0.1,0.2-0.1,0.3-0.1h7.8
						c0.1,0,0.3,0,0.3,0.1c0.1,0.1,0.1,0.2,0.1,0.3v1.1c0,0.3-0.2,0.5-0.5,0.5h-7.8C28.4,46.6,28.3,46.5,28.2,46.4z M28.2,51.4
						c-0.1-0.1-0.1-0.2-0.1-0.3V50c0-0.1,0-0.3,0.1-0.3c0.1-0.1,0.2-0.1,0.3-0.1h7.8c0.1,0,0.3,0,0.3,0.1c0.1,0.1,0.1,0.2,0.1,0.3
						v1.1c0,0.3-0.2,0.5-0.5,0.5h-7.8C28.4,51.6,28.3,51.5,28.2,51.4z"/>
				</g>
			</g>
			<g id="ComparatorChange" class="st5">
				<polygon id="ComparatorDown" class="st48" points="26.7,65.1 38.7,65.1 32.7,74.1 				"/>
				<polygon id="ComparatorUp" class="st48" points="26.7,31 32.7,22 38.7,31 				"/>
			</g>
			<g id="ValueChange" class="st5">
				<polygon id="ValueDown" class="st48" points="56.1,65.1 68.1,65.1 62.1,74.1 				"/>
				<polygon id="ValueUp" class="st48" points="56.1,31 62.1,22 68.1,31 				"/>
			</g>
			<rect id="ValueField" x="48.1" y="42.2" class="st62" width="28" height="12"/>
			<g id="Ev_CounterStates" class="st5">
				<path id="State7" class="st23" d="M28.6,13.6L28.6,13.6c-0.8-2-3.2-3-5.2-2.2l0,0c-0.2,0.1-0.4,0.2-0.6,0.3
					c-4.6,3-8.5,6.9-11.4,11.5c-1.1,1.9-0.6,4.3,1.3,5.5c0.2,0.1,0.4,0.2,0.6,0.3l0,0c1.8,0.7,3.8,0.1,4.9-1.5
					c2.3-3.6,5.3-6.7,8.9-9C28.7,17.5,29.4,15.4,28.6,13.6z"/>
				<path id="State6" class="st23" d="M12,48c0-2.1,0.2-4.2,0.7-6.3c0.4-1.9-0.6-3.8-2.4-4.5l0,0c-2-0.9-4.4,0.1-5.2,2.1l0,0
					C5,39.5,5,39.7,4.9,39.9c-1.2,5.3-1.2,10.8,0,16.1c0.5,2.2,2.6,3.5,4.8,3l0,0c0.2,0,0.4-0.1,0.6-0.2l0,0
					c1.8-0.7,2.8-2.6,2.4-4.5C12.2,52.3,12,50.1,12,48z"/>
				<path id="State5" class="st23" d="M13.3,67.1L13.3,67.1c-2,0.8-3,3.2-2.2,5.2l0,0c0.1,0.2,0.2,0.4,0.3,0.6
					c2.9,4.6,6.8,8.5,11.4,11.5c1.9,1.2,4.3,0.6,5.5-1.3c0.1-0.2,0.2-0.4,0.3-0.6l0,0c0.7-1.8,0.1-3.8-1.5-4.9
					c-3.6-2.3-6.6-5.4-8.9-9C17.1,67.1,15.1,66.4,13.3,67.1z"/>
				<path id="State4" class="st23" d="M48,84c-2.3,0-4.5-0.2-6.7-0.8c-1.9-0.4-3.8,0.6-4.6,2.4l0,0c-0.8,2,0.1,4.4,2.2,5.2l0,0
					c0.2,0.1,0.4,0.2,0.7,0.2c5.3,1.2,10.8,1.3,16.1,0.2c2.2-0.4,3.6-2.5,3.2-4.7l0,0c-0.1-0.3-0.1-0.5-0.2-0.8l0,0
					C57.9,84,56,83,54.1,83.4C52.1,83.8,50.1,84,48,84z"/>
				<path id="State3" class="st23" d="M66.7,82.7L66.7,82.7c0.8,2,3.2,3,5.2,2.2l0,0c0.2-0.1,0.4-0.2,0.5-0.3
					c4.7-3,8.7-6.9,11.8-11.6c1.2-1.9,0.7-4.3-1.2-5.5c0,0,0,0-0.1,0c-0.2-0.1-0.4-0.2-0.6-0.3l0,0c-1.8-0.7-3.8-0.1-4.9,1.5
					c-2.4,3.7-5.5,6.8-9.3,9.2C66.7,78.8,66,80.9,66.7,82.7z"/>
				<path id="State2" class="st23" d="M84,48c0,2.2-0.2,4.4-0.7,6.6c-0.4,1.9,0.6,3.8,2.4,4.5l0,0c2,0.9,4.4-0.1,5.2-2.1
					c0.1-0.2,0.1-0.4,0.2-0.6c1.2-5.5,1.2-11.2,0-16.7c-0.5-2.2-2.6-3.5-4.8-3l0,0c-0.2,0.1-0.4,0.1-0.6,0.2l0,0
					c-1.8,0.7-2.8,2.7-2.4,4.5C83.8,43.6,84,45.8,84,48z"/>
				<path id="State1" class="st23" d="M82.4,29L82.4,29c2-0.8,3-3.2,2.2-5.2l0,0c-0.1-0.2-0.2-0.4-0.3-0.6c-3-4.7-7-8.7-11.8-11.7
					c-1.9-1.1-4.3-0.5-5.5,1.3c-0.1,0.2-0.2,0.4-0.3,0.6l0,0c-0.7,1.8-0.1,3.8,1.6,4.9c3.7,2.3,6.9,5.5,9.3,9.2
					C78.6,29.1,80.6,29.7,82.4,29z"/>
				<path id="State0" class="st23" d="M48,12.1c2.1,0,4.1,0.2,6.2,0.6c1.9,0.4,3.8-0.6,4.5-2.4l0,0c0.8-2-0.1-4.4-2.2-5.2l0,0
					C56.3,5,56,4.9,55.7,4.9C50.4,3.7,44.9,3.8,39.6,5c-2.2,0.5-3.5,2.6-3.1,4.8c0.1,0.2,0.1,0.5,0.2,0.7l0,0
					c0.7,1.8,2.7,2.8,4.6,2.4C43.5,12.3,45.7,12,48,12.1z"/>
			</g>
			<g id="Saturate" class="st5">
				<line id="SaturateLever" class="st63" x1="30.4" y1="6" x2="34.8" y2="16.6"/>
				<circle id="SaturatePivot" class="st64" cx="30.4" cy="6" r="2"/>
			</g>
		</g>
		<g id="Ev_TimersUp" class="st0">
			<g id="fx-4" class="st5">
				<g id="fx_left">
					<path class="st30" d="M21.4,52.8c-1.5-3-1.6-6.5-0.2-9.5"/>
					<path class="st30" d="M17.9,55.4c-1.2-2.4-1.9-5-1.9-7.6c0-2.4,0.5-4.8,1.6-7"/>
				</g>
				<g id="fx_right">
					<path class="st30" d="M74.6,43.3c1.5,3,1.6,6.5,0.2,9.5"/>
					<path class="st30" d="M78.1,40.8c2.4,4.5,2.5,10,0.3,14.6"/>
				</g>
			</g>
			<path id="ClockBody" class="st65" d="M28,48.1c0-11,9-20,20-20s20,9,20,20s-9,20-20,20l0,0C37,68.1,28,59.1,28,48.1z"/>
			<polygon id="ClockTop" class="st66" points="53,22.8 53,21.3 43,21.4 43,22.9 47.2,22.8 47.2,26.1 48.8,26.1 48.8,22.8 			"/>
			<g id="ClockHand" class="st5">
				<line class="st30" x1="48" y1="48" x2="48" y2="33.2"/>
				<circle class="st9" cx="48" cy="48.1" r="2"/>
			</g>
		</g>
		<g id="ColorTop_basic" class="st0">
			<g id="ColorPalette" class="st5">
				<rect id="Btn2_Green" x="12" y="8.1" class="st67" width="18" height="18"/>
				<rect id="Btn2_Blue" x="30" y="8.1" class="st68" width="18" height="18"/>
				<rect id="Btn2_Red" x="47.9" y="8.1" class="st69" width="18" height="18"/>
				<rect id="Btn2_Yellow" x="12" y="26.1" class="st70" width="18" height="18"/>
				<rect id="Btn2_Cyan" x="47.9" y="26.1" class="st71" width="18" height="18"/>
				<rect id="Btn2_Magenta" x="30" y="26.1" class="st72" width="18" height="18"/>
				<rect id="Btn2_White_Select" x="65.9" y="8.1" class="st73" width="18" height="18"/>
				<g id="Btn2_NoColor">
					<rect x="65.9" y="26.1" class="st74" width="18" height="18"/>
					<polygon class="st75" points="68,43.3 66.6,43.3 66.6,41.9 81.7,26.8 83.1,26.8 83.1,28.2 					"/>
				</g>
			</g>
			<g id="Bg_Thymio_front_color" class="st5">
				<path class="st76" d="M18.1,54.2H78c8.6,0,15.4,5.3,15.4,11.8v2.4c0,6.5-6.9,11.8-15.4,11.8H18.1C9.5,80.3,2.7,75,2.7,68.4V66
					C2.7,59.5,9.5,54.2,18.1,54.2z"/>
			</g>
			<path id="Gradient_Top_basic" class="st62" d="M18.1,54.2H78c8.6,0,15.4,5.3,15.4,11.8v2.4c0,6.5-6.9,11.8-15.4,11.8H18.1
				C9.5,80.3,2.7,75,2.7,68.4V66C2.7,59.5,9.5,54.2,18.1,54.2z"/>
			<g id="SelectedColors" class="st5">
				<rect id="Btn2_SelectedWhite" x="65.4" y="7.6" class="st32" width="18.9" height="19"/>
				<rect id="Btn2_SelectedRed" x="47.4" y="7.6" class="st32" width="19" height="19"/>
				<rect id="Btn2_SelectedBlue" x="29.5" y="7.6" class="st32" width="18.9" height="19"/>
				<rect id="Btn2_SelectedGreen" x="11.5" y="7.6" class="st32" width="19" height="19"/>
				<rect id="Btn2_SelectedNone" x="65.4" y="25.6" class="st32" width="19" height="19"/>
				<rect id="Btn2_SelectedYel" x="47.4" y="25.6" class="st32" width="19" height="19"/>
				<rect id="Btn2_SelectedMagenta" x="29.4" y="25.6" class="st32" width="19" height="19"/>
				<rect id="Btn2_SelectedCyan" x="11.5" y="25.6" class="st32" width="19" height="19"/>
			</g>
		</g>
		<g id="ColorBottom_basic" class="st0">
			<g id="ColorPalette-2" class="st5">
				<rect id="Btn2_Green-2" x="12" y="52.1" class="st67" width="18" height="18"/>
				<rect id="Btn2_Blue-2" x="30" y="52.1" class="st68" width="18" height="18"/>
				<rect id="Btn2_Red-2" x="47.9" y="52.1" class="st69" width="18" height="18"/>
				<rect id="Btn2_Yellow-2" x="12" y="70.1" class="st77" width="18" height="18"/>
				<rect id="Btn2_Cyan-2" x="47.9" y="70.1" class="st71" width="18" height="18"/>
				<rect id="Btn2_Magenta-2" x="30" y="70.1" class="st72" width="18" height="18"/>
				<g id="Btn2_NoColor-2">
					<rect x="65.9" y="70.1" class="st74" width="18" height="18"/>
					<polygon class="st75" points="68.1,87.3 66.6,87.3 66.6,85.9 81.7,70.8 83.1,70.8 83.1,72.2 					"/>
				</g>
				<rect id="Btn2_White_Select-2" x="65.9" y="52.1" class="st73" width="18" height="18"/>
			</g>
			<g id="Bg_Thymio_front_color-2" class="st5">
				<path class="st76" d="M10,8.1h76c1.1,0,2,0.9,2,2v26c0,1.1-0.9,2-2,2H10c-1.1,0-2-0.9-2-2v-26C8,8.9,8.9,8.1,10,8.1z"/>
				<path class="st76" d="M85.9,38v5c0,0.7-0.5,1.2-1.2,1.3h-7.6c-0.7,0-1.2-0.6-1.2-1.3v-5H85.9z"/>
				<path class="st76" d="M20.3,38v5c0,0.7-0.5,1.3-1.2,1.3h-7.6c-0.7,0-1.2-0.6-1.2-1.3l0,0v-4.9L20.3,38z"/>
				<path class="st76" d="M42.2,38c1.9,1.2,2.2,3.6,2.9,4.6c0.6,0.7,1.4,1.2,2.3,1.2h1.2c0.9,0,1.8-0.5,2.4-1.2c0.7-1,1-3.3,2.9-4.6
					H42.2z"/>
				<g>
					<line class="st78" x1="62" y1="21.9" x2="69.4" y2="21.9"/>
					<line class="st78" x1="78.1" y1="21.9" x2="84" y2="21.9"/>
					<line class="st78" x1="34" y1="21.9" x2="26.6" y2="21.9"/>
					<line class="st78" x1="17.9" y1="21.9" x2="12" y2="21.9"/>
					<line class="st78" x1="43.5" y1="21.9" x2="52.3" y2="21.9"/>
				</g>
			</g>
			<path id="Gradient_Bottom_basic" class="st62" d="M8.8,22.6h78.5v13.5c0,0.7-0.5,1.2-1.2,1.2H10c-0.7,0-1.2-0.5-1.2-1.2l0,0l0,0
				V22.6L8.8,22.6z"/>
			<g id="SelectedColors_bottom" class="st5">
				<rect id="Btn2_SelectedWhite-2" x="66" y="52.1" class="st32" width="18" height="18"/>
				<rect id="Btn2_SelectedRed-2" x="48" y="52.1" class="st32" width="18" height="18"/>
				<rect id="Btn2_SelectedBlue-2" x="30" y="52.1" class="st32" width="18" height="18"/>
				<rect id="Btn2_SelectedGreen-2" x="12.1" y="52.1" class="st32" width="18" height="18"/>
				<rect id="Btn2_SelectedNone-2" x="66" y="70.1" class="st32" width="18" height="18"/>
				<rect id="Btn2_SelectedYel-2" x="48" y="70.1" class="st32" width="18" height="18"/>
				<rect id="Btn2_SelectedMagenta-2" x="30" y="70.1" class="st32" width="18" height="18"/>
				<rect id="Btn2_SelectedCyan-2" x="12.1" y="70.1" class="st32" width="18" height="18"/>
			</g>
		</g>
		<g id="Color_top_adv" class="st0">
			<g id="Bg_Thymio_front_color_adv" class="st5">
				<g id="Bg_Thymio_front_color-3">
					<path class="st76" d="M14,59.6h68c1.1,0,2,0.9,2,2v23c0,1.1-0.9,2-2,2H14c-1.1,0-2-0.9-2-2v-23C12,60.5,12.9,59.6,14,59.6z"/>
					<path class="st76" d="M82.1,86.6v4.5c0,0.6-0.5,1.1-1.1,1.1l0,0h-6.8c-0.6,0-1.1-0.5-1.1-1.1v-4.4L82.1,86.6z"/>
					<path class="st76" d="M23.1,86.6v4.5c0,0.6-0.5,1.1-1.1,1.2h-6.8c-0.6,0-1.1-0.5-1.1-1.1l0,0l0,0v-4.5L23.1,86.6z"/>
					<path class="st76" d="M42.8,86.6c1.7,1.1,2,3.2,2.6,4.1c0.5,0.7,1.3,1.1,2.1,1.1h1.1c0.8,0,1.6-0.4,2.1-1.1
						c0.6-0.9,0.9-3,2.6-4.1H42.8z"/>
					<g>
						<line class="st78" x1="60.6" y1="72.1" x2="67.2" y2="72.1"/>
						<line class="st78" x1="75.1" y1="72.1" x2="80.4" y2="72.1"/>
						<line class="st78" x1="35.4" y1="72.1" x2="28.7" y2="72.1"/>
						<line class="st78" x1="20.9" y1="72.1" x2="15.6" y2="72.1"/>
						<line class="st78" x1="43.9" y1="72.1" x2="51.9" y2="72.1"/>
					</g>
				</g>
			</g>
			
				<radialGradient id="Gradient_top_1_" cx="2669.8926" cy="-2364.1321" r="95.84" gradientTransform="matrix(0.41 0 0 -0.41 -1046.49 -903.73)" gradientUnits="userSpaceOnUse">
				<stop  offset="0" style="stop-color:#FFFFFF"/>
				<stop  offset="9.000000e-02" style="stop-color:#FEFEFE;stop-opacity:0.97"/>
				<stop  offset="0.22" style="stop-color:#FAFBFC;stop-opacity:0.9"/>
				<stop  offset="0.37" style="stop-color:#F4F6F7;stop-opacity:0.78"/>
				<stop  offset="0.53" style="stop-color:#ECF0F1;stop-opacity:0.61"/>
				<stop  offset="0.72" style="stop-color:#E2E7EA;stop-opacity:0.4"/>
				<stop  offset="0.91" style="stop-color:#D6DDE1;stop-opacity:0.14"/>
				<stop  offset="1" style="stop-color:#CFD8DC;stop-opacity:0"/>
			</radialGradient>
			<path id="Gradient_top" class="st79" d="M13.9,60.4H82c0.7,0,1.2,0.5,1.2,1.2v9.7H12.7v-9.7C12.7,60.9,13.3,60.4,13.9,60.4
				L13.9,60.4z"/>
			<g id="Sliders_rgb" class="st5">
				<g id="Slid_blue">
					<path id="Stroke_slid_blue" class="st31" d="M20,46h56c1.1,0,2,0.9,2,2l0,0c0,1.1-0.9,2-2,2H20c-1.1,0-2-0.9-2-2l0,0
						C18,46.9,18.9,46,20,46z"/>
					<line id="Bg_slid_blue" class="st80" x1="20" y1="48.1" x2="76" y2="48.1"/>
					<line id="Slid_blue_value" class="st81" x1="20" y1="48.1" x2="76" y2="48.1"/>
					<circle id="Cursor_blue" class="st82" cx="77.3" cy="48" r="5"/>
				</g>
				<g id="Slid_green">
					<path id="Stroke_slid_green" class="st31" d="M20,28h56c1.1,0,2,0.9,2,2l0,0c0,1.1-0.9,2-2,2H20c-1.1,0-2-0.9-2-2l0,0
						C18,28.9,18.9,28,20,28z"/>
					<line id="Bg_slid_green" class="st80" x1="20" y1="30" x2="76" y2="30"/>
					<line id="Slid_green_value" class="st83" x1="20" y1="30.1" x2="76" y2="30.1"/>
					<circle id="Cursor_green" class="st84" cx="77.3" cy="30.1" r="5"/>
				</g>
				<g id="Slid_red">
					<path id="Stroke_slid_red" class="st31" d="M20,10.1h56c1.1,0,2,0.9,2,2l0,0c0,1.1-0.9,2-2,2H20c-1.1,0-2-0.9-2-2l0,0
						C18,10.9,18.9,10.1,20,10.1z"/>
					<line id="Bg_slid_red" class="st80" x1="20" y1="12.1" x2="76" y2="12.1"/>
					<line id="Slid_red_value" class="st85" x1="20" y1="12.1" x2="76" y2="12.1"/>
					<circle id="Cursor_red" class="st86" cx="77.3" cy="12.1" r="5"/>
				</g>
			</g>
		</g>
		<g id="Color_bot_adv" class="st0">
			<g id="Bg_Thymio_front_color-4" class="st5">
				<path class="st76" d="M14,4.1h68c1.1,0,2,0.9,2,2v23c0,1.1-0.9,2-2,2H14c-1.1,0-2-0.9-2-2v-23C12,5,12.9,4.1,14,4.1z"/>
				<path class="st76" d="M82.1,31.1v4.5c0,0.6-0.5,1.1-1.1,1.1l0,0h-6.8c-0.6,0-1.1-0.5-1.1-1.1v-4.4L82.1,31.1z"/>
				<path class="st76" d="M23.1,31.1v4.5c0,0.6-0.5,1.1-1.1,1.2h-6.8c-0.6,0-1.1-0.5-1.1-1.1l0,0v-4.5L23.1,31.1z"/>
				<path class="st76" d="M42.8,31.1c1.7,1.1,2,3.2,2.6,4.1c0.5,0.7,1.3,1.1,2.1,1.1h1.1c0.8,0,1.6-0.4,2.1-1.1
					c0.6-0.9,0.9-3,2.6-4.1H42.8z"/>
				<g>
					<line class="st78" x1="60.6" y1="16.6" x2="67.2" y2="16.6"/>
					<line class="st78" x1="75.1" y1="16.6" x2="80.4" y2="16.6"/>
					<line class="st78" x1="35.4" y1="16.6" x2="28.7" y2="16.6"/>
					<line class="st78" x1="20.9" y1="16.6" x2="15.6" y2="16.6"/>
					<line class="st78" x1="43.9" y1="16.6" x2="51.9" y2="16.6"/>
				</g>
			</g>
			
				<radialGradient id="Gradient_bottom_1_" cx="-175.6491" cy="-614.8819" r="33.9912" gradientTransform="matrix(1.14 0 0 -1.44 248.29 -861.58)" gradientUnits="userSpaceOnUse">
				<stop  offset="0" style="stop-color:#FFFFFF"/>
				<stop  offset="9.000000e-02" style="stop-color:#FEFEFE;stop-opacity:0.97"/>
				<stop  offset="0.22" style="stop-color:#FAFBFC;stop-opacity:0.9"/>
				<stop  offset="0.37" style="stop-color:#F4F6F7;stop-opacity:0.78"/>
				<stop  offset="0.53" style="stop-color:#ECF0F1;stop-opacity:0.61"/>
				<stop  offset="0.72" style="stop-color:#E2E7EA;stop-opacity:0.4"/>
				<stop  offset="0.91" style="stop-color:#D6DDE1;stop-opacity:0.14"/>
				<stop  offset="1" style="stop-color:#CFD8DC;stop-opacity:0"/>
			</radialGradient>
			<path id="Gradient_bottom" class="st87" d="M12.8,17.3h70.5v11.9c0,0.7-0.5,1.2-1.2,1.2H14c-0.7,0-1.2-0.5-1.2-1.2l0,0l0,0V17.3
				L12.8,17.3z"/>
			<g id="Sliders_rgb_bot" class="st5">
				<g id="Slid_blue_bot">
					<path id="Stroke_slid_blue_bot" class="st31" d="M17.9,83h56c1.1,0,2,0.9,2,2l0,0c0,1.1-0.9,2-2,2h-56c-1.1,0-2-0.9-2-2l0,0
						C15.8,83.9,16.7,83,17.9,83L17.9,83z"/>
					<line id="Bg_slid_blue_bot" class="st80" x1="17.9" y1="85" x2="73.8" y2="85"/>
					<line id="Slid_blue_value_bot" class="st81" x1="17.9" y1="85" x2="73.8" y2="85"/>
					<circle id="Cursor_blue_bot" class="st82" cx="75.2" cy="85" r="5"/>
				</g>
				<g id="Slid_green_bot">
					<path id="Stroke_slid_green_bot" class="st31" d="M17.9,65h56c1.1,0,2,0.9,2,2l0,0c0,1.1-0.9,2-2,2h-56c-1.1,0-2-0.9-2-2l0,0
						C15.8,65.9,16.7,65,17.9,65L17.9,65z"/>
					<line id="Bg_slid_green_bot" class="st80" x1="17.9" y1="67" x2="73.8" y2="67"/>
					<line id="Slid_green_value_bot" class="st83" x1="17.9" y1="67" x2="73.8" y2="67"/>
					<circle id="Cursor_green_bot" class="st84" cx="75.2" cy="67" r="5"/>
				</g>
				<g id="Slid_red_bot">
					<path id="Stroke_slid_red_bot" class="st31" d="M17.9,47h56c1.1,0,2,0.9,2,2l0,0c0,1.1-0.9,2-2,2h-56c-1.1,0-2-0.9-2-2l0,0
						C15.8,47.9,16.7,47,17.9,47L17.9,47z"/>
					<line id="Bg_slid_red_bot" class="st80" x1="17.9" y1="49" x2="73.8" y2="49"/>
					<line id="Slid_red_value_bot" class="st85" x1="17.9" y1="49" x2="73.8" y2="49"/>
					<circle id="Cursor_red_bot" class="st86" cx="75.2" cy="49" r="5"/>
				</g>
			</g>
		</g>
		<g id="Ac_Directions" class="st0">
			<g id="Ev_Bg_Thymio-5" class="st5">
				<path class="st10" d="M60.7,60.8H35.3c-0.7,0-1.3-0.6-1.3-1.3l0,0V39.8c0-0.5,0.2-1.1,0.6-1.4c3.6-3.6,8.4-5.5,13.4-5.5l0,0
					c5,0,9.8,2,13.4,5.5c0.4,0.4,0.6,0.9,0.6,1.5v19.7c0,0.3-0.1,0.7-0.4,0.9C61.4,60.7,61,60.8,60.7,60.8z"/>
			</g>
			<g id="DirectionArrows" class="st5">
				<polygon id="Btn2_FwdDir" class="st6" points="44.1,25.6 44.1,16 40.4,16 48.1,2.7 55.8,16 52.1,16 52.1,25.6 				"/>
				<path id="Btn2_FwdRightDir" class="st6" d="M60,27.3l0.5-0.7c1.8-2.8,4.2-5.2,6.9-7.2l-1.9-3.3L80.9,16l-7.6,13.4l-1.8-3
					c-2,1.6-3.7,3.5-4.9,5.7l-0.7,1.1L60,27.3z"/>
				<path id="Btn2_BwdRightDir" class="st6" d="M65.4,80l1.9-3.3c-2.7-2-5-4.4-6.9-7.2L60,68.8l5.9-5.8l0.7,1
					c1.3,2.2,2.9,4.1,4.9,5.7l1.8-3l7.6,13.4L65.4,80z"/>
				<polygon id="Btn2_BwdDir" class="st6" points="40.4,80.1 44.1,80.1 44.1,70.4 52.1,70.4 52.1,80.1 55.8,80.1 48.1,93.4 				"/>
				<path id="Btn2_BwdLeftDir" class="st6" d="M23,66.7l1.8,3c2-1.6,3.6-3.5,4.9-5.7l0.6-1.1l5.9,5.9l-0.5,0.7
					c-1.8,2.8-4.2,5.2-6.9,7.2l1.9,3.4l-15.4,0.1L23,66.7z"/>
				<path id="Btn2_FwdLeftDir" class="st6" d="M29.7,32.1c-1.3-2.2-2.9-4.1-4.9-5.7l-1.8,3L15.4,16l15.4,0.1l-2,3.4
					c2.7,2,5,4.4,6.9,7.2l0.5,0.7l-5.9,5.8L29.7,32.1z"/>
				<rect id="Btn2_StopDir" x="40" y="40.2" class="st6" width="16" height="16"/>
				<path id="Btn2_LeftDir" class="st6" d="M30.1,54.6l-13.8-8v4h-0.6c-2.3,0-4.2-1.9-4.2-4.2s1.9-4.2,4.2-4.2c1,0,2,0.3,2.8,1
					l5.3-6c-5.1-4.4-12.7-3.9-17.1,1.2s-4,12.8,1.1,17.2c2.2,1.9,5,3,8,3h0.6v4L30.1,54.6z"/>
				<path id="Btn2_RightDir" class="st6" d="M65.9,54.6l13.8-8v4h0.6c2.3,0,4.2-1.9,4.2-4.2s-1.9-4.2-4.2-4.2l0,0c-1,0-2,0.3-2.8,1
					l-5.3-6c5.1-4.4,12.7-3.9,17.1,1.2s3.9,12.7-1.2,17.1c-2.2,1.9-5,3-8,3h-0.6v4L65.9,54.6z"/>
			</g>
		</g>
		<g id="Ac_Wheels" class="st0">
			<g id="Sliders" class="st5">
				<g id="Slid_right">
					<g id="sliderBg_R">
						<line id="SliderR_range" class="st32" x1="80.1" y1="19" x2="80.1" y2="77"/>
						<line class="st88" x1="80.1" y1="12.1" x2="80.1" y2="84"/>
						<polygon class="st58" points="76.6,12.1 80.1,6 83.5,12.1 						"/>
						<polygon class="st58" points="76.6,84 80.1,90.1 83.5,84 						"/>
					</g>
					<g id="Cursor_right">
						<circle id="CursorRight" class="st33" cx="80.1" cy="48" r="6"/>
						<circle id="SameSpeed_R" class="st58" cx="80.1" cy="48" r="2"/>
					</g>
					<rect id="StopIndicator_R" x="78" y="45.9" class="st75" width="4.3" height="4.3"/>
				</g>
				<g id="Slid_left">
					<g id="sliderBg_L">
						<line id="SliderL_range" class="st32" x1="16.2" y1="19" x2="16.2" y2="77"/>
						<line class="st88" x1="16.2" y1="12.1" x2="16.2" y2="84"/>
						<polygon class="st58" points="12.7,12.1 16.2,6 19.7,12.1 						"/>
						<polygon class="st58" points="12.7,84 16.2,90.1 19.7,84 						"/>
					</g>
					<g id="Cursor_left">
						<circle id="CursorLeft" class="st33" cx="16.2" cy="48" r="6"/>
						<circle id="SameSpeed_L" class="st58" cx="16.2" cy="48" r="2"/>
					</g>
					<rect id="StopIndicator_L" x="14.1" y="45.9" class="st75" width="4.3" height="4.3"/>
				</g>
			</g>
			<g id="ThymioTop_wheels_mini" class="st5">
				<path class="st15" d="M48,34.8c-3.4,0-6.7,1.3-9.2,3.8c-0.2,0.2-0.3,0.5-0.3,0.7v13.5c0,0.6,0.4,1,1,1h16.9c0.6,0,1-0.4,1-1
					V39.3c0-0.3-0.1-0.5-0.3-0.7C54.7,36.2,51.4,34.8,48,34.8z"/>
				<path class="st89" d="M39.3,43.3h1.6c0.6,0,1,0.4,1,1v5.9c0,0.6-0.4,1-1,1h-1.6V43.3z"/>
				<path class="st89" d="M56.7,51.2h-1.6c-0.6,0-1-0.4-1-1v-5.9c0-0.6,0.4-1,1-1h1.6V51.2z"/>
			</g>
		</g>
		<g id="Ac_Music" class="st0">
			<g id="Music_Slider" class="st5">
				<line id="slid_tempo" class="st46" x1="84" y1="12.1" x2="32" y2="12.1"/>
				<circle id="cursor_tempo" class="st33" cx="58" cy="12.1" r="5"/>
			</g>
			<g id="beat" class="st5">
				<path class="st89" d="M23.1,10.1c0.1,0.1,0.1,0.1,0.1,0.2v0.8c0,0.1,0,0.2-0.1,0.2c-0.1,0.1-0.1,0.1-0.2,0.1h-3.7
					c-0.1,0-0.2,0-0.2-0.1s-0.1-0.1-0.1-0.2v-0.8c0-0.1,0.1-0.3,0.2-0.3l0,0h3.7C23,10,23.1,10,23.1,10.1z"/>
				<path class="st89" d="M23.1,12.8c0.1,0.1,0.1,0.1,0.1,0.2v0.8c0,0.1,0,0.1-0.1,0.2c-0.1,0.1-0.1,0.1-0.2,0.1h-3.7
					c-0.1,0-0.3-0.1-0.3-0.2l0,0V13c0-0.1,0-0.1,0.1-0.2c0.1-0.1,0.1-0.1,0.2-0.1h3.7C23,12.7,23.1,12.7,23.1,12.8z"/>
				<path id="note_Bg" class="st89" d="M16,6.8L16,6.8c-0.4,0-0.6,0.3-0.7,0.6v6.3c-0.7-0.4-1.5-0.5-2.2-0.2c-1.4,0.5-2.1,2-1.6,3.4
					c0.4,1.2,1.7,1.9,2.9,1.7c1.3-0.2,2.2-1.4,2.2-2.7V7.4C16.7,7.1,16.4,6.8,16,6.8L16,6.8L16,6.8z"/>
			</g>
			<path id="NoteIcon" class="st90" d="M53.8,6.8h-7.4c-0.7,0-1.3,0.6-1.3,1.3l0,0v5.6c-0.7-0.4-1.5-0.5-2.2-0.2
				c-1.4,0.5-2.1,2-1.6,3.4c0.4,1.2,1.6,1.9,2.9,1.7c1.3-0.2,2.2-1.4,2.2-2.7V9.4h7.1v4.3c-0.7-0.4-1.5-0.5-2.2-0.2
				c-1.3,0.5-2,2-1.5,3.4c0.3,0.8,1,1.5,1.9,1.6c0.3,0,0.6,0,0.9,0c1.3-0.2,2.2-1.4,2.2-2.7v-8C54.8,7.2,54.4,6.8,53.8,6.8z"/>
			<g id="Notes_pentagram" class="st5">
				<g id="zones_Bg">
					<rect x="12" y="74" class="st11" width="72" height="10"/>
					<rect x="12" y="62" class="st11" width="72" height="10"/>
					<rect x="12" y="50" class="st11" width="72" height="10"/>
					<rect x="12" y="38" class="st11" width="72" height="10"/>
					<rect x="12" y="26" class="st11" width="72" height="10"/>
				</g>
				<g id="notes">
					<circle id="Btn3_note1" class="st88" cx="17.6" cy="79" r="5"/>
					<circle id="Btn3_note2" class="st91" cx="29.2" cy="67" r="5"/>
					<circle id="Btn3_note3" class="st92" cx="40.8" cy="55" r="5"/>
					<circle id="Btn3_note4" class="st92" cx="52.4" cy="43" r="5"/>
					<circle id="Btn3_note5" class="st92" cx="64" cy="31" r="5"/>
					<circle id="Btn3_note6" class="st92" cx="75.6" cy="43" r="5"/>
				</g>
			</g>
		</g>
		<g id="Ac_SD_play" class="st0">
			<path id="Bg_ClipNumber" class="st93" d="M61,36h26c0.6,0,1,0.4,1,1v22c0,0.6-0.4,1-1,1H61c-0.6,0-1-0.4-1-1V37
				C60,36.5,60.4,36,61,36z"/>
			<path id="Text_ClipNumber" class="st62" d="M61,36h26c0.6,0,1,0.4,1,1v22c0,0.6-0.4,1-1,1H61c-0.6,0-1-0.4-1-1V37
				C60,36.5,60.4,36,61,36z"/>
			<g id="ChangeClip" class="st5">
				<polygon id="ClipDown" class="st48" points="68,64.1 80,64.1 74,73.1 				"/>
				<polygon id="ClipUp" class="st48" points="68,32 74,23 80,32 				"/>
			</g>
			<path class="st90" d="M36.3,23.4c0.5,0,1.1,0.2,1.4,0.6l9.7,10c0.4,0.4,0.6,0.9,0.6,1.4v35.3c0,1.1-0.9,2-2,2H14
				c-1.1,0-2-0.9-2-2V25.4c0-1.1,0.9-2,2-2H36.3 M36.3,21.4H14c-2.2,0-4,1.8-4,4v45.3c0,2.2,1.8,4,4,4h32c2.2,0,4-1.8,4-4V35.3
				c0-1-0.4-2.1-1.1-2.8l-9.7-9.9C38.4,21.8,37.4,21.4,36.3,21.4z"/>
			<path class="st94" d="M24,44h-6c-1.1,0-2,0.9-2,2v8c0,1.1,0.9,2,2,2h6l6.3,6.3c0.4,0.4,1,0.4,1.4,0c0.2-0.2,0.3-0.4,0.3-0.7V38.5
				c0-0.6-0.4-1-1-1c-0.3,0-0.5,0.1-0.7,0.3L24,44z"/>
			<path class="st95" d="M36.4,43.4c3.7,2.5,4.7,7.4,2.2,11.1c-0.6,0.9-1.3,1.6-2.2,2.2"/>
			<path class="st95" d="M39,39.6c5.8,3.9,7.3,11.7,3.4,17.5c-0.9,1.3-2.1,2.5-3.4,3.4"/>
		</g>
		<g id="Ac_SD_stop" class="st0">
			<path class="st96" d="M28,16h27.9c1.1,0,2.1,0.4,2.9,1.2l12.1,12.4c0.7,0.7,1.1,1.7,1.1,2.8V76c0,2.2-1.8,4-4,4H28
				c-2.2,0-4-1.8-4-4V20C24,17.8,25.8,16,28,16z"/>
			<g class="st5">
				<path class="st58" d="M58.1,48l2.7-2.7c0.4-0.4,0.4-1.1,0-1.5l0,0c-0.4-0.4-1.1-0.4-1.5,0l-2.7,2.7l-2.7-2.7
					c-0.4-0.4-1.1-0.4-1.5,0l0,0l0,0c-0.4,0.4-0.4,1.1,0,1.5l2.7,2.7l-2.7,2.7c-0.4,0.4-0.4,1.1,0,1.5s1.1,0.4,1.5,0l2.7-2.7
					l2.7,2.7c0.4,0.4,1.1,0.4,1.5,0s0.4-1.1,0-1.5L58.1,48z"/>
				<path class="st58" d="M32,44.4v7.3c0,1,0.8,1.8,1.8,1.8h5.3l5.9,6c0.7,0.7,1.8,0.7,2.5,0c0.3-0.3,0.5-0.8,0.5-1.2V37.9
					c0-1-0.8-1.8-1.7-1.8l0,0c-0.5,0-0.9,0.2-1.2,0.5l-5.9,6h-5.3C32.8,42.6,32,43.4,32,44.4L32,44.4z"/>
			</g>
		</g>
		<g id="AcCounter" class="st0">
			<g id="List_count_values" class="st5">
				<path id="Bg_SelectedOperator-2" class="st97" d="M78,48L78,48c0,5.5-4.5,10-10,10H28c-5.5,0-10-4.5-10-10l0,0
					c0-5.5,4.5-10,10-10h40C73.5,38,78,42.5,78,48z"/>
			</g>
			<g id="OperatorChange" class="st5">
				<polygon id="ComparatorDown-2" class="st48" points="26.7,65.1 38.7,65.1 32.7,74.1 				"/>
				<polygon id="ComparatorUp-2" class="st48" points="26.7,31 32.7,22 38.7,31 				"/>
			</g>
			<g id="ValueChange-2" class="st5">
				<polygon id="ValueDown-2" class="st48" points="56.1,65.1 68.1,65.1 62.1,74.1 				"/>
				<polygon id="ValueUp-2" class="st48" points="56.1,31 62.1,22 68.1,31 				"/>
			</g>
			<rect id="ValueField-2" x="48.1" y="42.2" class="st62" width="28" height="12"/>
			<g id="AcCounterLeds" class="st5">
				<path id="Led7" class="st11" d="M28.6,13.6L28.6,13.6c-0.8-2-3.2-3-5.2-2.2l0,0c-0.2,0.1-0.4,0.2-0.6,0.3
					c-4.6,3-8.5,6.9-11.4,11.5c-1.1,1.9-0.6,4.3,1.3,5.5c0.2,0.1,0.4,0.2,0.6,0.3l0,0c1.8,0.7,3.8,0.1,4.9-1.5
					c2.3-3.6,5.3-6.7,8.9-9C28.7,17.5,29.4,15.4,28.6,13.6z"/>
				<path id="Led6" class="st11" d="M12,48c0-2.1,0.2-4.2,0.7-6.3c0.4-1.9-0.6-3.8-2.4-4.5l0,0c-2-0.9-4.4,0.1-5.2,2.1l0,0
					C5,39.5,5,39.7,4.9,39.9c-1.2,5.3-1.2,10.8,0,16.1c0.5,2.2,2.6,3.5,4.8,3l0,0c0.2,0,0.4-0.1,0.6-0.2l0,0
					c1.8-0.7,2.8-2.6,2.4-4.5C12.2,52.3,12,50.1,12,48z"/>
				<path id="Led5" class="st11" d="M13.3,67.1L13.3,67.1c-2,0.8-3,3.2-2.2,5.2l0,0c0.1,0.2,0.2,0.4,0.3,0.6
					c2.9,4.6,6.8,8.5,11.4,11.5c1.9,1.2,4.3,0.6,5.5-1.3c0.1-0.2,0.2-0.4,0.3-0.6l0,0c0.7-1.8,0.1-3.8-1.5-4.9
					c-3.6-2.3-6.6-5.4-8.9-9C17.1,67.1,15.1,66.4,13.3,67.1z"/>
				<path id="Led4" class="st11" d="M48,84c-2.3,0-4.5-0.2-6.7-0.8c-1.9-0.4-3.8,0.6-4.6,2.4l0,0c-0.8,2,0.1,4.4,2.2,5.2l0,0
					c0.2,0.1,0.4,0.2,0.7,0.2c5.3,1.2,10.8,1.3,16.1,0.2c2.2-0.4,3.6-2.5,3.2-4.7l0,0c-0.1-0.3-0.1-0.5-0.2-0.8l0,0
					C57.9,84,56,83,54.1,83.4C52.1,83.8,50.1,84,48,84z"/>
				<path id="Led3" class="st11" d="M66.7,82.7L66.7,82.7c0.8,2,3.2,3,5.2,2.2l0,0c0.2-0.1,0.4-0.2,0.5-0.3c4.7-3,8.7-6.9,11.8-11.6
					c1.2-1.9,0.7-4.3-1.2-5.5c0,0,0,0-0.1,0c-0.2-0.1-0.4-0.2-0.6-0.3l0,0c-1.8-0.7-3.8-0.1-4.9,1.5c-2.4,3.7-5.5,6.8-9.3,9.2
					C66.7,78.8,66,80.9,66.7,82.7z"/>
				<path id="Led2" class="st11" d="M84,48c0,2.2-0.2,4.4-0.7,6.6c-0.4,1.9,0.6,3.8,2.4,4.5l0,0c2,0.9,4.4-0.1,5.2-2.1
					c0.1-0.2,0.1-0.4,0.2-0.6c1.2-5.5,1.2-11.2,0-16.7c-0.5-2.2-2.6-3.5-4.8-3l0,0c-0.2,0.1-0.4,0.1-0.6,0.2l0,0
					c-1.8,0.7-2.8,2.7-2.4,4.5C83.8,43.6,84,45.8,84,48z"/>
				<path id="Led1" class="st11" d="M82.4,29L82.4,29c2-0.8,3-3.2,2.2-5.2l0,0c-0.1-0.2-0.2-0.4-0.3-0.6c-3-4.7-7-8.7-11.8-11.7
					c-1.9-1.1-4.3-0.5-5.5,1.3c-0.1,0.2-0.2,0.4-0.3,0.6l0,0c-0.7,1.8-0.1,3.8,1.6,4.9c3.7,2.3,6.9,5.5,9.3,9.2
					C78.6,29.1,80.6,29.7,82.4,29z"/>
				<path id="Led0" class="st11" d="M48,12.1c2.1,0,4.1,0.2,6.2,0.6c1.9,0.4,3.8-0.6,4.5-2.4l0,0c0.8-2-0.1-4.4-2.2-5.2l0,0
					C56.3,5,56,4.9,55.7,4.9C50.4,3.7,44.9,3.8,39.6,5c-2.2,0.5-3.5,2.6-3.1,4.8c0.1,0.2,0.1,0.5,0.2,0.7l0,0
					c0.7,1.8,2.7,2.8,4.6,2.4C43.5,12.3,45.7,12,48,12.1z"/>
			</g>
			<g id="Btn_Saturate_On_hint" class="st5">
				<line id="SaturateLever-2" class="st45" x1="30.2" y1="6" x2="34.7" y2="16.6"/>
				<circle id="SaturatePivot-2" class="st45" cx="30.2" cy="6" r="2"/>
			</g>
			<g id="Btn_Saturate_Off_hint" class="st5">
				<line id="SaturateLever-3" class="st45" x1="30.2" y1="6" x2="18.8" y2="6"/>
				<circle id="SaturatePivot-3" class="st45" cx="30.2" cy="6" r="2"/>
			</g>
			<g id="Btn_Saturate_On" class="st5">
				<line id="SaturateLever-4" class="st46" x1="30.2" y1="6" x2="34.7" y2="16.6"/>
				<circle id="SaturatePivot-4" class="st98" cx="30.2" cy="6" r="2"/>
			</g>
			<g id="Btn_Saturate_Off" class="st5">
				<line id="SaturateLever-5" class="st46" x1="30.2" y1="6" x2="18.8" y2="6"/>
				<circle id="SaturatePivot-5" class="st98" cx="30.2" cy="6" r="2"/>
			</g>
			<g id="List_Operators-2" class="st5">
				<g id="Equals-2">
					<path class="st61" d="M28.2,46.4c-0.1-0.1-0.1-0.2-0.1-0.3V45c0-0.1,0-0.3,0.1-0.3c0.1-0.1,0.2-0.1,0.3-0.1h7.8
						c0.1,0,0.3,0,0.3,0.1c0.1,0.1,0.1,0.2,0.1,0.3v1.1c0,0.3-0.2,0.5-0.5,0.5h-7.8C28.4,46.6,28.3,46.5,28.2,46.4z M28.2,51.4
						c-0.1-0.1-0.1-0.2-0.1-0.3V50c0-0.1,0-0.3,0.1-0.3c0.1-0.1,0.2-0.1,0.3-0.1h7.8c0.1,0,0.3,0,0.3,0.1c0.1,0.1,0.1,0.2,0.1,0.3
						v1.1c0,0.3-0.2,0.5-0.5,0.5h-7.8C28.4,51.6,28.3,51.5,28.2,51.4z"/>
				</g>
				<path id="Plus" class="st61" d="M31.6,52.8c-0.1-0.1-0.1-0.2-0.1-0.3V49H28c-0.1,0-0.2,0-0.3-0.1c-0.1-0.1-0.1-0.2-0.1-0.3v-1
					c0-0.1,0-0.2,0.1-0.3s0.2-0.1,0.3-0.1h3.4v-3.5c0-0.1,0-0.2,0.1-0.3s0.2-0.1,0.3-0.1H33c0.1,0,0.2,0,0.3,0.1s0.1,0.2,0.1,0.3
					v3.4h3.4c0.2,0,0.4,0.1,0.4,0.4l0,0v1c0,0.2-0.1,0.4-0.4,0.4l0,0h-3.5v3.5c0,0.1,0,0.2-0.1,0.3s-0.2,0.1-0.3,0.1h-1.1
					C31.8,52.9,31.7,52.8,31.6,52.8z"/>
				<path id="Minus" class="st61" d="M28.7,48.8c-0.1-0.1-0.1-0.2-0.1-0.3v-1c0-0.1,0-0.2,0.1-0.3s0.2-0.1,0.3-0.1h6.9
					c0.1,0,0.2,0,0.3,0.1s0.1,0.2,0.1,0.3v1c0,0.1,0,0.2-0.1,0.3C36.1,48.9,36,49,35.9,49H29C28.9,48.9,28.8,48.9,28.7,48.8z"/>
				<path id="Multiply" class="st61" d="M28.5,50.8c0-0.1,0-0.2,0.1-0.3l2.5-2.5l-2.4-2.4c-0.1-0.1-0.1-0.2-0.1-0.3s0-0.2,0.1-0.3
					l0.7-0.7c0.1-0.1,0.2-0.1,0.3-0.1c0.1,0,0.2,0,0.3,0.1l2.4,2.4l2.4-2.4c0.1-0.1,0.2-0.1,0.3-0.1s0.2,0.1,0.3,0.1l0.8,0.8
					c0.1,0.1,0.1,0.2,0.1,0.3s-0.1,0.2-0.1,0.3l-2.4,2.4l2.4,2.4c0.1,0.1,0.1,0.2,0.1,0.3s-0.1,0.2-0.1,0.3l-0.7,0.7
					c-0.1,0.1-0.2,0.1-0.3,0.1s-0.2,0-0.3-0.1l-2.4-2.4L30,51.9C29.9,52,29.8,52,29.7,52c-0.1,0-0.2,0-0.3-0.1l-0.8-0.8
					C28.6,51,28.5,50.9,28.5,50.8z"/>
				<g id="Divide">
					<path class="st61" d="M28.5,48.9c-0.1-0.1-0.1-0.2-0.1-0.3v-1c0-0.1,0-0.2,0.1-0.3s0.2-0.1,0.3-0.1h7c0.1,0,0.2,0,0.3,0.1
						s0.1,0.2,0.1,0.3v1c0,0.2-0.2,0.4-0.4,0.4h-7C28.8,49,28.6,48.9,28.5,48.9z M31.3,45.7c-0.1-0.1-0.1-0.2-0.1-0.3V44
						c0-0.1,0-0.2,0.1-0.3s0.2-0.1,0.3-0.1H33c0.1,0,0.2,0,0.3,0.1s0.1,0.2,0.1,0.3v1.3c0,0.1,0,0.2-0.1,0.3s-0.2,0.1-0.3,0.1h-1.4
						C31.5,45.9,31.4,45.8,31.3,45.7z M31.3,52.3c-0.1-0.1-0.1-0.2-0.1-0.3v-1.4c0-0.1,0-0.2,0.1-0.3s0.2-0.1,0.3-0.1H33
						c0.1,0,0.2,0,0.3,0.1s0.1,0.2,0.1,0.3V52c0,0.1,0,0.2-0.1,0.3s-0.2,0.1-0.3,0.1h-1.4C31.5,52.4,31.4,52.4,31.3,52.3z"/>
				</g>
			</g>
		</g>
		<g id="Ac_Timer" class="st0">
			<g id="Bg_Clock" class="st5">
				<path id="Bg_TimeDisplay" class="st11" d="M24,42h48c2.2,0,4,1.8,4,4v12c0,2.2-1.8,4-4,4H24c-2.2,0-4-1.8-4-4V46
					C20,43.8,21.8,42,24,42z"/>
				<path id="Clock" class="st89" d="M48.1,15.2c19.9,0,36,16.1,36,36s-16.1,36-36,36s-36-16.1-36-36l0,0
					C12.1,31.3,28.2,15.2,48.1,15.2 M48.1,13.2c-21,0-38,17-38,38s17,38,38,38s38-17,38-38S69.1,13.2,48.1,13.2L48.1,13.2z"/>
				<polygon id="ClockTop-2" class="st89" points="53.8,7 42.2,7 42.2,9 47,9 47,12 49,12 49,9 53.8,9 				"/>
			</g>
			<g id="SecChange" class="st5">
				<polygon id="SecDown" class="st48" points="26.2,67.8 38.2,67.8 32.2,75.8 				"/>
				<polygon id="SecUp" class="st48" points="26.2,35.8 32.2,27.8 38.2,35.8 				"/>
			</g>
			<g id="SecTenthChange" class="st5">
				<polygon id="TSecDown" class="st48" points="60.1,67.8 72.1,67.8 66.1,75.8 				"/>
				<polygon id="TSecUp" class="st48" points="60.1,35.8 66.1,27.8 72.1,35.8 				"/>
			</g>
			<rect id="text_SecTenthDisplay" x="22.3" y="44" class="st62" width="19.3" height="14.5"/>
			<rect id="text_SecDisplay" x="58.8" y="44" class="st62" width="14.6" height="14.5"/>
			<g id="S_Unit" class="st5">
				<path class="st24" d="M45.5,58c-0.5-0.2-1-0.6-1.4-1c-0.3-0.3-0.4-0.6-0.5-1c0-0.1,0-0.2,0.1-0.3s0.2-0.1,0.3-0.1h0.8
					c0.1,0,0.1,0,0.2,0c0.1,0.1,0.1,0.1,0.2,0.2c0.3,0.4,0.6,0.6,1,0.9c0.5,0.2,1,0.3,1.5,0.3c0.6,0,1.2-0.1,1.7-0.4
					c0.4-0.2,0.7-0.7,0.6-1.1c0-0.3-0.1-0.6-0.3-0.8c-0.3-0.2-0.6-0.4-0.9-0.5c-0.6-0.2-1.3-0.3-1.9-0.4c-0.9-0.1-1.7-0.5-2.4-1.1
					c-0.5-0.5-0.7-1.2-0.7-1.8c0-0.5,0.2-1,0.4-1.4c0.3-0.5,0.8-0.9,1.3-1.1c0.6-0.3,1.3-0.4,2-0.4s1.4,0.1,2.1,0.4
					c0.5,0.2,1,0.6,1.3,1c0.2,0.3,0.4,0.6,0.5,0.9c0,0.1,0,0.2-0.1,0.3s-0.2,0.1-0.3,0.1h-0.6c-0.2,0-0.3-0.1-0.4-0.2
					c-0.2-0.2-0.4-0.5-0.6-0.6c-0.2-0.2-0.4-0.3-0.7-0.3c-0.4-0.1-0.7-0.2-1.1-0.2c-0.5,0-1,0.1-1.5,0.4c-0.3,0.3-0.5,0.7-0.5,1.1
					c0,0.3,0.1,0.5,0.2,0.7c0.2,0.3,0.5,0.4,0.8,0.5c0.6,0.2,1.2,0.4,1.8,0.5c1,0.1,1.9,0.5,2.7,1.1c0.5,0.5,0.8,1.2,0.8,1.9
					c0,0.6-0.2,1.1-0.5,1.6c-0.4,0.5-0.9,0.9-1.4,1.1c-0.7,0.3-1.5,0.4-2.3,0.4C47,58.5,46.2,58.3,45.5,58z"/>
			</g>
		</g>
		<g id="LICENSE" class="st0">
			<g class="st5">
				<g id="BY">
					<path id="path37" d="M37.5,80.6c0-0.3-0.3-0.6-0.6-0.6h-3.7c-0.3,0-0.6,0.2-0.6,0.6l0,0v3.7h1v4.3h2.8v-4.3h1L37.5,80.6
						L37.5,80.6z"/>
					<circle id="circle39" cx="35.1" cy="78.3" r="1.2"/>
					<path id="path41" class="st99" d="M35.1,74c-2.4,0-4.6,0.9-6.3,2.6c-1.7,1.7-2.7,4-2.6,6.3c0,4.9,4,8.9,8.9,8.9
						c2.4,0,4.7-0.9,6.4-2.7c1.7-1.7,2.6-4,2.5-6.3C44,78,40,74,35.1,74L35.1,74z M35.1,75.6c4,0,7.3,3.3,7.3,7.3
						c0.1,1.9-0.7,3.8-2.1,5.1c-1.4,1.4-3.2,2.2-5.2,2.2c-4,0-7.3-3.2-7.3-7.2c0-2,0.8-3.9,2.2-5.3C31.3,76.3,33.2,75.5,35.1,75.6
						L35.1,75.6z"/>
				</g>
				<path id="NC" d="M57.5,74c4.9,0,8.9,3.9,8.9,8.8l0,0V83c0.1,2.4-0.9,4.6-2.5,6.3c-1.7,1.7-4,2.7-6.4,2.7c-4.9,0-8.9-4-8.9-8.9
					c0-2.4,0.9-4.7,2.6-6.3C52.8,74.9,55.1,74,57.5,74z M50.6,80.5c-1.3,3.9,0.8,8,4.7,9.3c3.3,1.1,7-0.3,8.7-3.4L60.6,85
					c-0.3,1.1-1.3,2-2.5,2v1.3h-1v-1.4c-1,0-2-0.4-2.7-1.1l1.2-1.2c0.5,0.5,1.3,0.8,2,0.8c0.5,0,1.1-0.2,1.1-0.9
					c0-0.2-0.1-0.4-0.2-0.5l-0.8-0.4l-1.1-0.5l-1.4-0.6L50.6,80.5z M57.5,75.6c-1.9,0-3.8,0.7-5.1,2.1c-0.4,0.4-0.7,0.8-1,1.2
					l3.4,1.5c0.4-1,1.3-1.6,2.3-1.6v-1.5h1v1.4c0.8,0,1.6,0.3,2.2,0.8l-1.2,1.2c-0.4-0.3-1-0.5-1.5-0.5c-0.4,0-1.1,0.1-1.1,0.7
					c0,0.1,0,0.2,0.1,0.2l1.1,0.5l0.8,0.3l1.4,0.6l4.6,2c0.2-0.6,0.2-1.3,0.2-1.9c0-4-3.3-7.3-7.3-7.3L57.5,75.6z"/>
				<g id="ND">
					<path id="path1334" d="M79.7,74c-5,0.1-8.9,4.1-8.9,9.1c0.1,5,4.1,8.9,9.1,8.9c5-0.1,8.9-4.1,8.9-9.1c-0.1-4.9-4-8.8-8.9-8.9
						H79.7z M79.7,75.5h0.2c4,0.1,7.2,3.4,7.2,7.4c-0.1,4-3.4,7.2-7.4,7.2s-7.2-3.4-7.2-7.4C72.6,78.8,75.7,75.6,79.7,75.5z"/>
					<path id="rect1338" d="M76.8,80.7h6.6v1.6h-6.6V80.7z M76.8,83.6h6.6v1.6h-6.6V83.6z"/>
				</g>
				<g id="CC">
					<path id="path2554" class="st99" d="M12.7,73.9c-2.4,0-4.6,0.9-6.3,2.6s-2.6,4-2.6,6.3c0,2.4,0.9,4.6,2.6,6.3
						c1.7,1.7,3.9,2.6,6.3,2.6s4.7-1,6.4-2.7s2.6-3.9,2.5-6.3c0-4.9-3.9-8.9-8.8-8.9L12.7,73.9z M12.7,75.5c4,0,7.3,3.2,7.3,7.2v0.1
						c0,1.9-0.7,3.8-2.1,5.2c-1.4,1.4-3.3,2.2-5.2,2.2S8.9,89.4,7.6,88c-1.4-1.4-2.2-3.2-2.2-5.1c0-2,0.8-3.8,2.2-5.2
						C8.9,76.3,10.7,75.5,12.7,75.5L12.7,75.5z"/>
					<path id="path2556" class="st99" d="M12.6,81.3c-0.5-0.9-1.4-1.4-2.4-1.3c-1.4,0-2.6,1.1-2.6,2.5l0,0c0,0.1,0,0.2,0,0.3
						c-0.1,1.4,0.9,2.6,2.3,2.8l0,0c0.1,0,0.3,0,0.4,0c1,0,1.9-0.5,2.4-1.4l-1.1-0.6c-0.1,0.5-0.6,0.8-1.1,0.8
						c-0.8,0-1.2-0.7-1.2-1.6s0.3-1.6,1.2-1.6c0.4,0,0.8,0.3,1,0.7L12.6,81.3z"/>
					<path id="path2558" class="st99" d="M17.7,81.3c-0.5-0.9-1.4-1.4-2.4-1.3c-1.4,0-2.6,1.1-2.6,2.5l0,0c0,0.1,0,0.2,0,0.3
						c-0.1,1.4,0.9,2.6,2.3,2.8l0,0c0.1,0,0.3,0,0.4,0c1,0,1.9-0.5,2.3-1.4l-1.1-0.6c-0.1,0.5-0.6,0.8-1.1,0.8
						c-0.8,0-1.2-0.7-1.2-1.6s0.3-1.6,1.2-1.6c0.4,0,0.8,0.3,1,0.7L17.7,81.3z"/>
				</g>
			</g>
		</g>
		<g id="Ev_Freq" class="st0">
			<g id="Clock-2" class="st5">
				<path id="Bg_TimeDisplay-2" class="st100" d="M57.2,44.9v12c0,2.2-1.5,4-3.3,4H14.5c-1.8,0-3.3-1.8-3.3-4v-12c0-2.2,1.5-4,3.3-4
					h39.4C55.8,40.9,57.2,42.7,57.2,44.9z"/>
				<path id="Clock-3" class="st30" d="M34.2,22.3c-15.8,0-28.6,12.8-28.6,28.6s12.8,28.6,28.6,28.6s28.6-12.8,28.6-28.6l0,0
					C62.8,35.1,50,22.3,34.2,22.3z"/>
				<polygon id="ClockTop-2-2" class="st9" points="40,15 28.5,15 28.5,17 33.2,17 33.2,20.1 35.2,20.1 35.2,17 40,17 				"/>
			</g>
			<g id="Freq_change" class="st5">
				<polygon id="FreqDownDown" class="st48" points="28.2,66.9 40.2,66.9 34.2,74.9 				"/>
				<polygon id="FreqUp" class="st48" points="28.2,34.9 34.2,26.9 40.2,34.9 				"/>
			</g>
			<g id="wave" class="st5">
				<g>
					<g id="MotionLinesL-2">
						<path class="st9" d="M64.2,33.7v-6c0-0.6,0.4-1,1-1s1,0.4,1,1v6c0,0.6-0.4,1-1,1S64.2,34.3,64.2,33.7z"/>
						<path class="st9" d="M68.2,33.7c0-0.2,0.1-0.3,0.1-0.5l3-5.2c0.3-0.5,0.9-0.6,1.4-0.4c0.5,0.3,0.6,0.9,0.4,1.3l-3,5.2
							c-0.3,0.5-0.9,0.6-1.4,0.4C68.4,34.4,68.2,34.1,68.2,33.7z"/>
					</g>
					<g id="MotionLinesR-2">
						<path class="st9" d="M64.2,73.7v-6c0-0.6,0.4-1,1-1s1,0.4,1,1v6c0,0.6-0.4,1-1,1S64.2,74.3,64.2,73.7z"/>
						<path class="st9" d="M68.2,67.7c0-0.6,0.4-1,1-1c0.4,0,0.7,0.2,0.9,0.5l3,5.2c0.2,0.5,0.1,1.1-0.4,1.3c-0.5,0.2-1,0.1-1.3-0.3
							l-3-5.2C68.3,68.1,68.2,67.9,68.2,67.7z"/>
					</g>
				</g>
				<g>
					<line class="st26" x1="65.2" y1="40.9" x2="69.5" y2="40.9"/>
					<line class="st26" x1="82.1" y1="40.9" x2="86.4" y2="40.9"/>
					<line class="st26" x1="73.7" y1="40.9" x2="77.9" y2="40.9"/>
					<line class="st26" x1="69.5" y1="60.9" x2="73.7" y2="60.9"/>
					<line class="st26" x1="77.9" y1="60.9" x2="82.1" y2="60.9"/>
					<line class="st26" x1="86.4" y1="60.9" x2="90.6" y2="60.9"/>
					<line class="st26" x1="69.5" y1="60.9" x2="69.5" y2="40.9"/>
					<line class="st26" x1="86.4" y1="60.9" x2="86.4" y2="40.9"/>
					<line class="st26" x1="73.7" y1="60.9" x2="73.7" y2="40.9"/>
					<line class="st26" x1="77.9" y1="60.9" x2="77.9" y2="40.9"/>
					<line class="st26" x1="82.1" y1="60.9" x2="82.1" y2="40.9"/>
				</g>
			</g>
		</g>
	</g>
</g>
</svg>
